<?xml version="1.0" encoding="UTF-8" standalone="no"?>
<!DOCTYPE svg PUBLIC "-//W3C//DTD SVG 1.1//EN" "http://www.w3.org/Graphics/SVG/1.1/DTD/svg11.dtd">
<svg xmlns="http://www.w3.org/2000/svg" version="1.1" viewBox="0 0 1470 980">
<g stroke-width="2.00" fill="none" stroke-linecap="butt">
<path stroke="#9a9a9a" vector-effect="non-scaling-stroke" d="
  M 846.69 813.00
  L 893.99 804.92
  A 3.24 3.19 -78.7 0 0 896.20 803.42
  C 897.86 800.72 894.99 799.78 892.86 799.63
  C 887.74 799.28 882.37 798.67 877.36 798.61
  C 779.89 797.42 682.45 798.09 585.00 796.57
  Q 581.61 796.52 576.96 794.03
  Q 575.40 793.19 573.44 794.50
  A 1.28 1.21 -12.3 0 0 572.91 795.28
  C 572.35 798.09 573.89 799.30 576.59 799.68
  Q 581.10 800.31 583.18 804.19
  C 586.87 811.08 575.07 820.96 570.27 824.26
  Q 567.51 826.16 569.62 827.98
  A 2.18 2.18 -23.8 0 0 570.99 828.51
  C 593.59 829.15 615.22 828.81 637.25 828.78
  Q 778.55 828.58 909.75 826.56
  Q 914.55 826.49 919.52 824.85
  A 1.01 0.83 -30.9 0 1 920.41 824.98
  Q 921.32 825.71 921.27 827.01
  A 0.89 0.81 -12.9 0 1 920.77 827.73
  Q 916.61 829.70 911.93 829.72
  C 655.08 831.26 398.20 831.55 141.34 831.79
  C 98.45 831.83 55.52 831.95 12.62 832.25
  C 10.23 832.27 6.12 831.89 2.76 832.36
  C 0.43 832.69 0.50 835.32 2.65 835.95
  C 4.69 836.54 6.92 836.05 8.43 836.05
  C 286.37 835.70 564.31 835.10 842.25 834.42
  Q 883.43 834.32 912.75 833.79
  Q 918.45 833.69 923.79 830.80
  A 0.48 0.47 61.6 0 1 924.44 831.00
  C 930.16 841.92 949.27 824.54 954.45 820.56
  C 964.53 812.83 958.65 805.64 950.66 800.07
  Q 949.62 799.35 950.88 799.22
  L 971.70 796.94
  Q 974.14 796.67 976.48 795.44
  Q 979.03 794.08 977.73 791.81
  C 975.66 788.19 968.08 790.19 964.79 790.42
  A 0.47 0.45 87.8 0 1 964.30 789.95
  C 964.41 775.72 962.63 757.76 956.02 744.90
  A 0.30 0.30 76.7 0 1 956.29 744.46
  Q 992.19 744.29 1028.08 742.64
  A 0.83 0.81 73.5 0 1 1028.82 743.05
  C 1033.33 750.87 1033.32 758.41 1032.31 766.53
  A 1.03 1.02 2.3 0 1 1031.34 767.42
  L 975.07 769.41
  A 1.67 1.67 7.2 0 0 973.52 770.61
  C 972.54 773.90 973.07 779.54 977.75 779.57
  C 979.51 779.58 981.60 778.43 983.33 778.30
  Q 985.92 778.10 986.91 780.50
  Q 993.20 795.78 988.98 811.50
  A 0.80 0.80 1.8 0 1 988.37 812.07
  L 984.98 812.76
  Q 982.82 813.19 983.41 815.36
  C 984.43 819.05 988.55 817.81 991.06 816.40
  A 1.85 1.81 -58.7 0 1 992.00 816.16
  C 1071.87 817.39 1151.68 820.37 1231.56 821.65
  C 1253.87 822.01 1291.04 822.03 1319.25 820.27
  C 1330.77 819.56 1338.62 818.98 1347.97 815.89
  A 2.29 2.27 -83.9 0 0 1349.19 814.90
  Q 1354.76 805.37 1360.80 798.96
  C 1367.27 792.08 1368.26 786.96 1357.75 783.74
  C 1340.31 778.40 1320.53 778.81 1302.43 778.66
  C 1231.20 778.10 1159.92 779.70 1088.69 780.67
  Q 1059.71 781.07 1030.74 780.29
  Q 1029.94 780.27 1030.49 779.69
  Q 1033.63 776.42 1035.24 771.87
  A 0.74 0.73 -81.0 0 1 1035.90 771.38
  C 1055.86 770.59 1076.01 769.56 1095.99 770.43
  Q 1208.19 775.31 1320.50 774.42
  Q 1333.05 774.32 1352.52 773.75
  Q 1355.11 773.67 1357.26 774.64
  C 1370.37 780.53 1382.90 790.59 1372.83 806.58
  C 1369.43 811.99 1361.06 820.69 1353.98 822.31
  Q 1345.73 824.20 1336.32 824.88
  Q 1308.85 826.86 1284.81 827.02
  C 1240.28 827.31 1195.70 826.40 1151.19 825.04
  Q 1059.57 822.23 968.00 818.01
  C 965.59 817.90 960.85 817.08 960.06 820.23
  A 1.65 1.23 47.3 0 0 960.16 821.17
  Q 962.55 826.79 962.37 831.56
  Q 962.23 835.06 965.73 835.34
  Q 986.56 836.98 1007.44 837.36
  Q 1072.06 838.51 1136.69 838.42
  Q 1284.63 838.23 1432.56 837.04
  Q 1448.91 836.91 1466.46 837.04
  A 2.69 2.67 13.7 0 0 1468.86 835.59
  C 1469.69 833.95 1467.74 832.94 1466.23 832.95
  C 1418.09 833.30 1369.94 833.20 1321.81 833.70
  C 1214.93 834.81 1107.93 835.19 1001.07 832.95
  C 989.71 832.71 978.18 832.72 966.90 831.18
  A 0.65 0.61 89.8 0 1 966.37 830.62
  L 965.39 822.46
  A 0.42 0.40 87.5 0 1 965.80 821.99
  C 1050.69 825.85 1135.60 829.22 1220.56 830.63
  C 1260.82 831.30 1301.34 831.73 1341.49 828.50
  C 1349.47 827.86 1357.34 826.90 1363.75 822.05
  C 1382.69 807.69 1388.90 787.11 1364.45 773.57
  Q 1364.01 773.33 1364.50 773.30
  C 1385.76 772.06 1450.84 769.79 1415.69 728.21
  C 1410.53 722.11 1406.84 717.88 1399.95 715.50
  C 1376.25 707.29 1349.98 708.59 1325.25 708.84
  C 1255.33 709.54 1201.02 711.22 1107.19 713.96
  Q 1091.52 714.42 1045.07 714.96
  A 0.96 0.73 -11.4 0 1 1044.27 714.57
  Q 1043.97 714.03 1044.26 713.51
  A 0.91 0.69 13.2 0 1 1045.06 713.15
  Q 1053.04 713.67 1058.10 707.81
  C 1059.84 705.81 1061.32 705.47 1063.78 705.32
  A 1.39 1.23 18.3 0 0 1064.64 704.95
  Q 1066.95 702.57 1068.22 699.45
  C 1072.81 688.16 1076.97 675.69 1084.37 665.88
  Q 1086.50 663.07 1089.89 664.03
  C 1094.40 665.30 1099.46 666.12 1104.52 666.52
  Q 1123.07 667.96 1141.69 667.40
  C 1190.28 665.91 1238.88 662.26 1287.50 662.66
  C 1300.65 662.77 1359.48 663.22 1355.27 686.94
  Q 1354.85 689.31 1352.46 689.61
  Q 1341.60 690.97 1331.18 691.35
  C 1266.56 693.70 1180.78 690.30 1106.75 692.48
  C 1101.57 692.63 1088.43 692.78 1083.18 696.56
  C 1080.03 698.84 1068.71 701.80 1071.73 706.37
  A 1.45 1.32 -6.2 0 0 1072.50 706.93
  Q 1076.82 708.29 1082.69 708.60
  C 1111.30 710.11 1140.05 709.92 1168.69 709.41
  C 1222.73 708.47 1276.69 706.48 1330.75 706.78
  Q 1342.60 706.85 1354.43 707.60
  C 1356.37 707.72 1358.19 709.00 1360.69 708.39
  C 1368.41 706.50 1372.86 699.13 1374.42 691.42
  C 1378.29 672.29 1366.54 656.05 1348.19 651.25
  C 1346.50 650.81 1346.67 649.47 1348.53 649.46
  C 1353.19 649.42 1353.31 645.65 1350.25 643.33
  C 1347.38 641.14 1342.15 640.17 1341.84 645.12
  A 1.18 1.18 -89.5 0 1 1340.72 646.22
  Q 1296.39 648.11 1252.25 648.83
  Q 1158.78 650.37 1065.30 650.28
  C 1062.44 650.28 1057.82 649.98 1054.07 650.20
  A 1.66 1.21 16.1 0 0 1053.16 650.53
  C 1051.45 652.01 1052.83 653.21 1054.35 653.88
  C 1069.40 660.53 1063.16 690.58 1057.71 701.49
  A 1.62 1.61 -80.0 0 1 1056.45 702.38
  L 1025.95 706.19
  Q 1022.27 706.65 1024.09 709.92
  L 1026.51 714.27
  A 0.29 0.29 -15.0 0 1 1026.26 714.70
  C 1020.20 714.77 1015.47 714.51 1009.73 712.44
  A 1.42 1.34 43.3 0 0 1008.79 712.44
  Q 1004.79 713.98 1008.04 717.21
  Q 1017.81 726.93 1025.72 737.59
  Q 1026.48 738.62 1025.20 738.68
  Q 986.86 740.38 948.50 740.46
  Q 945.96 740.46 944.81 742.55
  A 1.38 1.25 -72.6 0 0 945.74 744.57
  C 952.64 745.00 954.19 749.09 955.76 755.00
  Q 960.45 772.60 960.30 790.26
  A 1.43 1.41 65.1 0 1 959.98 791.16
  C 958.49 792.96 957.24 794.38 954.73 794.72
  C 952.27 795.06 939.24 795.91 946.41 801.84
  C 950.85 805.51 959.58 810.68 953.45 816.14
  Q 950.70 818.60 939.32 826.50
  C 936.84 828.22 927.28 834.43 928.40 827.26
  Q 928.83 824.45 930.12 821.92
  C 936.77 808.78 952.64 782.52 924.19 779.29
  C 906.46 777.28 888.77 776.99 871.05 775.38
  Q 870.55 775.34 871.05 775.27
  C 880.37 774.08 890.69 772.86 899.20 768.70
  Q 901.38 767.63 901.42 765.22
  C 901.67 751.54 905.33 735.68 897.97 723.32
  C 890.75 711.18 876.51 705.22 862.51 703.50
  C 832.35 699.80 806.28 698.41 777.93 697.69
  Q 718.10 696.17 658.26 696.26
  C 642.11 696.28 623.61 696.68 606.23 696.37
  Q 605.73 696.36 606.18 696.14
  C 610.09 694.27 614.71 691.71 619.16 691.87
  C 700.34 694.79 789.86 692.84 867.85 690.33
  C 869.85 690.26 871.13 688.98 870.08 687.04
  A 1.12 0.97 -6.9 0 0 869.32 686.53
  C 863.06 685.43 847.87 680.59 846.72 673.01
  C 846.16 669.34 847.96 662.28 851.22 659.67
  C 855.70 656.09 861.91 657.93 861.76 649.49
  A 0.48 0.47 0.0 0 1 862.25 649.01
  C 867.73 649.17 881.59 650.22 876.19 641.59
  C 873.09 636.64 863.37 637.97 858.22 637.82
  A 1.03 0.99 -16.7 0 1 857.42 637.41
  C 851.34 628.92 852.31 612.74 854.99 603.48
  A 1.44 1.30 -11.7 0 1 855.54 602.73
  Q 858.53 600.67 860.88 597.76
  A 1.35 1.28 -73.9 0 1 861.68 597.29
  Q 874.52 595.12 887.52 594.02
  A 1.60 1.59 88.2 0 0 888.98 592.46
  Q 889.00 591.38 888.24 589.89
  A 0.84 0.75 -11.8 0 0 887.51 589.47
  L 859.30 589.22
  A 1.07 0.94 70.1 0 1 858.52 588.79
  L 853.79 582.39
  A 1.73 1.38 -3.8 0 0 853.00 581.84
  Q 849.84 580.74 848.50 580.69
  Q 790.82 578.42 739.50 579.08
  Q 737.84 579.10 736.77 578.73
  Q 736.22 578.54 736.80 578.53
  C 794.37 577.92 851.98 577.04 909.50 574.47
  Q 919.93 574.00 930.27 572.54
  A 3.74 3.73 -73.2 0 0 932.57 571.30
  C 939.48 563.45 942.65 551.34 938.07 541.60
  C 932.55 529.87 915.72 524.05 903.24 522.26
  Q 880.95 519.04 848.69 518.50
  C 784.50 517.41 719.53 517.83 655.50 522.81
  C 652.46 523.05 642.89 523.53 640.84 525.61
  C 635.94 530.58 650.89 530.66 651.82 530.68
  C 725.80 532.07 799.29 528.22 868.99 531.31
  Q 882.40 531.91 886.00 532.98
  C 891.69 534.68 914.42 543.26 913.60 550.82
  Q 913.22 554.38 908.95 555.05
  Q 890.40 557.97 871.69 559.47
  Q 794.86 565.62 717.81 567.86
  Q 678.92 568.99 654.54 568.53
  A 0.36 0.36 10.5 0 1 654.21 568.05
  C 656.80 561.10 659.98 555.84 655.00 548.78
  A 0.88 0.84 40.2 0 1 654.91 547.93
  Q 657.44 542.21 652.77 539.54
  C 650.83 538.44 638.22 534.03 639.75 540.83
  C 640.44 543.88 646.39 547.48 648.95 549.08
  A 1.17 1.17 -58.4 0 1 649.33 550.68
  Q 645.40 557.17 641.81 564.14
  Q 638.12 571.30 645.99 571.77
  Q 646.87 571.82 646.33 572.53
  L 644.23 575.31
  A 1.05 1.05 -72.3 0 1 643.44 575.72
  L 623.08 576.31
  Q 621.25 576.37 619.92 577.98
  L 613.35 585.92
  A 1.25 1.07 14.4 0 1 612.52 586.33
  Q 599.01 587.22 596.46 587.94
  Q 581.20 592.27 576.05 606.33
  C 569.36 624.57 584.40 636.73 600.52 639.95
  Q 607.15 641.28 616.45 642.10
  Q 616.95 642.15 616.46 642.20
  Q 597.73 644.03 581.76 647.27
  C 575.93 648.45 568.66 650.63 564.67 655.21
  C 550.71 671.24 567.79 688.51 579.78 698.00
  C 580.66 698.70 581.15 699.80 581.96 700.64
  A 1.13 1.07 66.2 0 0 582.80 700.99
  L 588.24 700.86
  Q 588.72 700.84 588.42 701.21
  C 575.98 716.23 594.47 715.86 600.71 723.76
  C 604.58 728.65 603.18 737.14 599.10 741.53
  C 596.13 744.72 592.17 748.47 590.64 752.08
  C 589.38 755.04 587.26 763.18 593.53 762.31
  C 610.18 760.00 612.21 741.01 607.88 728.11
  C 606.09 722.77 606.62 718.35 603.49 713.10
  A 0.29 0.29 -15.6 0 1 603.74 712.66
  C 617.10 712.38 631.10 711.36 643.68 711.29
  C 713.13 710.93 782.65 711.08 852.01 715.01
  Q 862.47 715.60 872.27 720.96
  C 882.02 726.28 900.31 738.81 887.20 751.24
  Q 879.62 758.43 868.80 760.05
  C 851.10 762.70 833.06 763.04 815.19 763.22
  C 744.85 763.95 674.59 762.30 604.26 762.51
  C 593.54 762.54 581.51 762.62 571.05 764.89
  Q 569.08 765.32 568.87 767.16
  L 567.28 781.46
  A 1.06 1.05 -64.3 0 0 567.58 782.33
  Q 568.44 783.22 569.73 783.48
  Q 570.18 783.58 569.80 783.85
  Q 566.91 785.91 564.87 789.12
  A 0.78 0.75 -46.8 0 0 564.88 789.97
  Q 566.94 792.86 571.19 792.91
  Q 591.76 793.17 601.44 792.95
  C 686.21 791.03 771.03 788.80 855.83 788.75
  C 872.95 788.74 890.67 789.17 907.76 790.88
  Q 912.13 791.31 913.40 792.57
  C 919.33 798.45 925.55 810.24 920.84 818.37
  A 0.43 0.43 34.3 0 1 920.20 818.49
  C 917.00 815.92 914.62 813.38 910.36 812.62
  C 905.11 811.68 898.37 811.92 893.00 812.04
  Q 869.87 812.53 846.74 813.50
  Q 842.84 813.66 846.69 813.00"
/>
<path stroke="#4f5452" vector-effect="non-scaling-stroke" d="
  M 659.71 526.50
  Q 655.23 526.79 659.75 526.96"
/>
<path stroke="#9a9a9a" vector-effect="non-scaling-stroke" d="
  M 659.75 526.96
  C 729.69 526.90 799.84 524.80 869.74 527.14
  C 886.37 527.70 899.23 531.73 912.51 541.40
  C 917.64 545.14 920.15 552.16 915.00 556.67
  Q 913.07 558.37 908.05 559.23
  Q 894.74 561.50 883.94 562.45
  Q 813.93 568.63 737.81 571.30
  Q 686.71 573.09 651.81 572.56
  A 0.96 0.90 15.9 0 0 651.03 572.96
  L 649.67 575.00
  Q 649.30 575.55 649.96 575.54
  Q 746.13 574.55 841.25 572.70
  Q 874.76 572.05 908.25 570.53
  Q 918.55 570.06 928.78 568.65
  A 1.51 1.39 16.2 0 0 929.63 568.23
  Q 931.89 565.91 933.54 562.33
  C 946.74 533.66 909.49 526.37 891.18 524.84
  Q 868.97 522.98 846.69 522.60
  Q 784.43 521.54 722.19 523.41
  Q 685.76 524.51 659.71 526.50"
/>
<path stroke="#b4b9b7" vector-effect="non-scaling-stroke" d="
  M 659.75 526.96
  L 659.71 526.50"
/>
<path stroke="#9a9a9a" vector-effect="non-scaling-stroke" d="
  M 646.43 542.30
  L 650.17 544.93
  A 1.48 1.04 51.8 0 0 651.07 545.20
  C 654.84 544.75 646.80 541.67 646.71 541.65
  Q 644.92 541.25 646.43 542.30"
/>
<path stroke="#9a9a9a" vector-effect="non-scaling-stroke" d="
  M 645.38 567.39
  L 648.62 567.95
  A 0.97 0.64 -61.5 0 0 649.41 567.53
  Q 653.91 561.41 653.46 553.77
  Q 653.34 551.84 652.46 553.44
  L 645.11 566.73
  A 0.45 0.42 -69.3 0 0 645.38 567.39"
/>
<path stroke="#9a9a9a" vector-effect="non-scaling-stroke" d="
  M 619.79 585.80
  C 697.44 583.69 775.29 587.83 852.93 589.23
  A 0.34 0.33 -10.1 0 0 853.26 588.78
  Q 851.79 585.17 847.08 584.89
  Q 829.16 583.84 815.93 583.61
  Q 733.71 582.17 643.27 582.73
  C 641.37 582.74 640.59 582.23 640.40 580.32
  A 0.56 0.51 85.3 0 0 639.87 579.82
  L 625.44 580.39
  Q 622.95 580.49 621.90 581.98
  L 619.52 585.38
  Q 619.22 585.81 619.79 585.80"
/>
<path stroke="#9a9a9a" vector-effect="non-scaling-stroke" d="
  M 607.00 622.29
  Q 608.18 624.48 610.63 624.92
  C 630.94 628.56 652.00 628.69 672.57 629.23
  C 724.34 630.59 776.14 628.30 827.92 630.63
  C 830.99 630.77 839.54 630.34 837.46 635.65
  A 1.91 1.91 -77.3 0 1 835.53 636.87
  Q 834.38 636.79 833.69 637.19
  Q 833.19 637.48 833.80 637.48
  L 849.40 637.69
  Q 850.91 637.71 849.83 636.67
  C 846.29 633.28 838.32 625.02 833.60 624.20
  Q 824.74 622.65 811.75 621.68
  C 765.67 618.25 696.14 617.30 638.50 612.05
  C 635.74 611.80 616.20 610.10 618.39 604.84
  Q 619.43 602.32 622.09 601.73
  C 636.45 598.57 651.29 598.53 665.81 598.43
  C 718.10 598.07 770.31 600.04 822.56 601.46
  C 831.96 601.71 842.72 602.13 851.82 599.47
  A 1.95 1.59 -72.7 0 0 852.62 598.94
  L 855.67 595.43
  Q 857.53 593.30 854.75 593.29
  Q 847.62 593.28 840.82 593.08
  Q 771.64 591.01 702.44 589.72
  C 669.87 589.11 641.52 589.24 616.20 590.17
  A 1.02 1.02 -73.8 0 0 615.40 590.61
  Q 610.25 598.03 603.73 604.32
  A 1.26 1.19 -21.6 0 0 603.34 605.16
  Q 603.01 614.95 607.00 622.29"
/>
<path stroke="#9a9a9a" vector-effect="non-scaling-stroke" d="
  M 585.44 628.56
  C 591.69 633.76 600.86 636.44 608.57 637.16
  C 629.02 639.08 650.44 639.63 671.49 638.88
  C 720.27 637.14 769.69 638.31 817.77 634.99
  Q 824.90 634.49 817.75 634.26
  C 758.69 632.32 699.62 634.87 640.50 632.19
  Q 626.43 631.55 612.51 629.46
  Q 608.08 628.80 604.28 626.41
  A 1.67 1.61 -86.1 0 1 603.66 625.67
  Q 599.61 616.39 598.95 606.15
  Q 598.74 602.84 601.30 600.74
  Q 605.64 597.18 609.67 591.19
  Q 609.95 590.78 609.45 590.79
  C 602.88 590.98 595.51 591.51 590.05 595.14
  C 578.66 602.71 573.36 618.52 585.44 628.56"
/>
<path stroke="#9a9a9a" vector-effect="non-scaling-stroke" d="
  M 625.42 605.92
  C 628.60 606.53 632.00 607.25 635.22 607.56
  C 699.18 613.78 763.56 612.94 827.50 618.99
  C 831.95 619.41 836.88 619.89 840.46 622.92
  Q 844.92 626.71 849.60 630.40
  Q 849.99 630.72 849.91 630.23
  Q 847.67 617.43 850.19 604.76
  A 0.35 0.34 -88.8 0 0 849.80 604.35
  C 839.82 605.91 826.52 605.69 819.50 605.49
  Q 726.54 602.92 708.44 602.71
  C 680.93 602.40 652.91 601.36 625.57 604.88
  C 625.03 604.95 623.77 605.60 625.42 605.92"
/>
<path stroke="#9a9a9a" vector-effect="non-scaling-stroke" d="
  M 706.06 643.44
  C 687.17 643.50 667.96 643.04 649.27 643.94
  Q 621.99 645.25 594.92 649.00
  C 588.24 649.92 581.57 651.45 575.49 653.26
  Q 565.33 656.28 563.97 667.02
  C 562.48 678.79 576.01 689.79 584.20 696.35
  A 1.52 1.45 64.8 0 0 585.08 696.69
  C 589.45 696.89 593.89 697.33 598.00 695.36
  Q 602.27 693.31 606.58 691.31
  Q 607.50 690.88 606.48 690.82
  C 596.23 690.16 584.23 689.59 578.26 679.82
  C 572.45 670.33 588.14 658.59 593.58 652.85
  Q 595.71 650.61 598.75 650.05
  Q 609.55 648.06 620.01 647.33
  Q 646.57 645.47 673.19 644.97
  C 732.55 643.84 791.94 644.17 851.31 644.76
  C 852.83 644.77 854.81 644.83 853.57 642.60
  A 1.36 1.35 -14.0 0 0 852.40 641.90
  C 823.56 641.34 794.82 640.65 766.32 641.68
  Q 718.50 643.40 706.06 643.44"
/>
<path stroke="#9a9a9a" vector-effect="non-scaling-stroke" d="
  M 870.28 642.58
  Q 865.32 641.90 860.30 642.04
  A 0.42 0.36 -10.3 0 0 859.89 642.54
  L 860.76 644.59
  A 0.90 0.61 -6.9 0 0 861.54 644.99
  Q 865.79 644.99 870.02 645.02
  C 873.64 645.06 873.38 643.00 870.28 642.58"
/>
<path stroke="#9a9a9a" vector-effect="non-scaling-stroke" d="
  M 585.44 681.56
  C 592.49 686.55 606.36 687.05 616.16 687.46
  A 0.35 0.27 2.8 0 0 616.51 687.21
  Q 616.53 686.97 616.26 686.93
  C 606.10 685.61 597.26 679.61 597.45 668.44
  C 597.49 666.11 598.40 663.65 600.55 662.76
  C 607.92 659.70 618.40 659.23 626.82 658.73
  C 693.77 654.74 760.83 658.04 827.75 654.03
  Q 839.40 653.33 849.10 649.56
  Q 849.22 649.51 849.29 649.42
  Q 849.37 649.31 849.41 649.21
  A 0.30 0.23 8.7 0 0 849.10 648.89
  Q 787.56 648.11 726.01 648.26
  C 695.43 648.34 664.15 648.79 632.49 650.29
  Q 615.33 651.10 598.79 654.27
  A 3.32 3.28 16.1 0 0 597.01 655.24
  Q 591.80 660.71 586.53 666.19
  C 581.44 671.49 577.82 676.19 585.44 681.56"
/>
<path stroke="#9a9a9a" vector-effect="non-scaling-stroke" d="
  M 607.23 679.24
  C 614.87 684.41 621.53 683.21 630.00 681.22
  C 634.29 680.22 636.16 683.43 631.96 685.41
  Q 629.56 686.53 627.18 687.51
  Q 625.74 688.10 627.30 688.15
  C 703.11 690.53 779.11 688.74 854.90 686.67
  Q 855.82 686.65 854.99 686.25
  C 845.23 681.65 841.21 676.70 843.43 665.48
  Q 845.34 655.82 854.60 653.55
  C 856.88 652.99 857.38 652.38 857.47 650.11
  Q 857.54 648.10 856.11 649.51
  C 849.88 655.63 838.31 657.28 829.79 657.91
  Q 808.63 659.50 790.19 659.69
  C 739.96 660.20 689.70 660.25 639.50 661.90
  Q 622.53 662.46 604.70 665.45
  Q 601.60 665.97 601.44 669.11
  Q 601.15 675.12 607.23 679.24"
/>
<path stroke="#9a9a9a" vector-effect="non-scaling-stroke" d="
  M 1088.69 659.56
  Q 1102.61 663.03 1117.00 663.25
  C 1159.61 663.89 1202.25 660.71 1244.82 659.17
  C 1272.68 658.17 1301.94 657.52 1329.48 662.14
  C 1339.27 663.78 1349.22 666.47 1355.66 674.57
  C 1359.77 679.73 1362.78 692.25 1352.77 693.64
  Q 1343.05 694.99 1337.69 695.21
  C 1260.02 698.44 1182.27 693.81 1104.75 696.76
  C 1099.72 696.95 1090.27 696.93 1086.07 699.77
  Q 1082.56 702.15 1078.47 703.40
  A 0.56 0.42 -16.6 0 0 1078.05 703.96
  C 1078.22 704.52 1095.97 705.27 1097.59 705.30
  C 1153.64 706.34 1209.79 704.63 1265.82 703.11
  C 1291.16 702.41 1319.21 702.04 1337.75 702.78
  C 1347.37 703.17 1353.72 702.94 1359.54 704.39
  A 1.61 1.49 39.8 0 0 1360.50 704.34
  C 1369.98 700.71 1372.20 687.28 1370.43 678.51
  C 1367.91 666.05 1358.63 658.22 1346.69 655.17
  Q 1343.32 654.31 1343.01 650.83
  A 0.76 0.76 85.7 0 0 1342.21 650.14
  Q 1308.65 651.80 1275.06 652.47
  Q 1168.95 654.59 1062.80 654.23
  Q 1062.31 654.23 1062.55 654.65
  C 1070.31 667.97 1068.61 686.58 1062.93 700.36
  Q 1062.75 700.80 1063.14 700.73
  C 1063.48 700.67 1070.59 682.94 1071.36 681.08
  C 1073.41 676.12 1081.36 657.74 1088.69 659.56"
/>
<path stroke="#9a9a9a" vector-effect="non-scaling-stroke" d="
  M 590.65 712.38
  Q 595.72 715.31 601.04 717.93
  Q 601.50 718.16 601.27 717.69
  Q 598.89 712.88 593.72 711.19
  A 1.49 1.19 -1.6 0 1 592.98 710.63
  C 591.52 708.16 593.72 707.34 595.77 707.61
  C 608.15 709.28 617.52 708.27 632.94 707.34
  Q 642.56 706.76 690.25 707.35
  C 743.01 708.00 794.19 707.01 845.50 710.79
  C 853.97 711.41 861.76 711.66 869.39 714.85
  C 882.95 720.51 908.13 738.56 889.04 755.20
  C 878.14 764.70 864.63 765.27 850.81 766.09
  C 812.57 768.37 773.86 768.16 735.57 767.55
  Q 675.50 766.60 615.43 766.46
  C 603.47 766.43 591.66 766.79 580.75 767.48
  Q 577.72 767.67 573.41 768.60
  A 0.82 0.79 0.3 0 0 572.80 769.18
  Q 571.59 773.84 571.68 778.86
  A 0.50 0.49 -1.7 0 0 572.20 779.34
  Q 594.36 778.42 616.52 779.69
  Q 618.72 779.82 619.23 781.96
  C 620.39 786.88 607.01 786.23 604.44 786.23
  Q 589.16 786.26 573.96 787.21
  C 572.08 787.33 568.74 789.10 573.61 789.05
  C 670.43 787.92 767.16 784.42 864.00 784.95
  C 879.78 785.04 896.42 784.79 911.98 787.67
  Q 915.39 788.31 918.11 791.61
  C 925.09 800.06 929.49 810.95 924.08 821.49
  Q 923.41 822.80 924.40 823.26
  A 0.55 0.50 -65.4 0 0 925.09 822.96
  Q 928.86 814.75 932.84 806.64
  C 940.34 791.40 936.69 784.14 919.50 782.73
  Q 882.43 779.67 845.24 778.88
  Q 836.09 778.68 825.27 779.31
  Q 754.48 783.40 683.57 782.42
  C 665.20 782.17 647.31 781.75 629.01 779.88
  Q 625.65 779.53 626.40 776.58
  Q 626.84 774.89 628.58 774.79
  C 635.49 774.38 642.46 773.77 649.15 773.65
  Q 735.55 772.10 821.93 774.20
  C 843.36 774.71 864.91 772.42 886.01 768.79
  Q 891.74 767.81 896.97 765.16
  A 0.83 0.82 -13.7 0 0 897.42 764.43
  Q 897.60 751.28 898.27 746.27
  C 900.90 726.44 887.46 712.59 869.00 708.75
  Q 857.61 706.38 841.68 705.12
  Q 813.47 702.90 785.18 702.01
  C 723.65 700.08 661.99 699.86 600.44 700.73
  Q 597.10 700.77 594.79 701.96
  C 591.43 703.68 584.96 709.08 590.65 712.38"
/>
<path stroke="#9a9a9a" vector-effect="non-scaling-stroke" d="
  M 1043.72 708.43
  Q 1042.91 708.53 1043.73 708.70
  Q 1048.40 709.67 1051.80 707.62
  Q 1052.37 707.27 1051.73 707.36
  L 1043.72 708.43"
/>
<path stroke="#9a9a9a" vector-effect="non-scaling-stroke" d="
  M 1032.44 714.75
  C 1034.62 714.69 1036.30 715.13 1039.14 714.73
  A 1.20 1.19 85.5 0 0 1040.17 713.51
  Q 1040.10 711.17 1040.97 708.95
  A 0.29 0.29 -82.1 0 0 1040.67 708.55
  L 1029.75 709.92
  A 0.40 0.35 -17.3 0 0 1029.43 710.45
  L 1031.64 714.38
  A 0.97 0.68 -10.5 0 0 1032.44 714.75"
/>
<path stroke="#9a9a9a" vector-effect="non-scaling-stroke" d="
  M 1046.71 721.35
  Q 1059.07 722.21 1063.25 722.27
  C 1167.33 723.67 1271.82 722.55 1375.49 725.01
  C 1382.56 725.18 1417.21 724.52 1404.38 741.67
  Q 1399.16 748.64 1393.16 755.78
  A 3.42 3.36 -77.4 0 1 1391.47 756.87
  Q 1385.33 758.56 1378.67 759.04
  Q 1355.09 760.75 1331.44 761.03
  C 1259.87 761.91 1188.32 760.54 1116.75 761.00
  C 1096.70 761.13 1076.86 761.49 1056.84 762.77
  Q 1052.01 763.08 1056.82 763.59
  Q 1081.15 766.22 1105.50 765.49
  Q 1191.11 762.90 1276.75 763.55
  Q 1305.80 763.77 1334.75 766.01
  Q 1343.85 766.72 1352.74 768.69
  Q 1356.47 769.52 1359.83 769.38
  C 1372.29 768.87 1431.65 768.35 1420.28 742.73
  C 1417.29 735.98 1412.30 730.34 1407.30 725.00
  C 1399.22 716.37 1378.60 713.86 1367.18 713.38
  Q 1348.13 712.58 1329.06 712.88
  C 1304.55 713.26 1280.01 713.41 1255.50 714.02
  C 1185.36 715.76 1115.21 718.31 1045.06 719.06
  A 0.83 0.75 10.8 0 0 1044.32 719.51
  C 1043.41 721.52 1045.46 721.26 1046.71 721.35"
/>
<path stroke="#9a9a9a" vector-effect="non-scaling-stroke" d="
  M 1028.94 719.03
  C 1024.46 718.84 1019.98 718.55 1015.46 718.49
  Q 1014.96 718.48 1015.30 718.84
  Q 1023.79 727.46 1030.56 737.50
  A 0.94 0.68 65.2 0 0 1031.33 737.93
  L 1038.02 736.99
  A 0.65 0.62 71.8 0 0 1038.47 736.05
  L 1029.70 719.47
  A 0.97 0.81 -9.9 0 0 1028.94 719.03"
/>
<path stroke="#9a9a9a" vector-effect="non-scaling-stroke" d="
  M 1206.43 756.78
  C 1256.35 756.92 1306.01 757.51 1355.93 756.28
  Q 1371.27 755.90 1386.52 754.06
  Q 1389.20 753.74 1391.02 751.75
  Q 1396.68 745.57 1402.52 737.25
  Q 1404.44 734.52 1401.73 733.03
  C 1395.35 729.52 1388.49 729.47 1380.19 729.04
  Q 1369.09 728.47 1309.93 728.05
  Q 1223.75 727.45 1137.57 726.97
  C 1094.32 726.73 1071.60 727.03 1042.98 725.32
  Q 1040.86 725.20 1040.47 723.15
  L 1039.77 719.56
  A 0.66 0.56 82.5 0 0 1039.18 719.02
  L 1034.91 719.18
  A 0.34 0.31 71.7 0 0 1034.68 719.70
  C 1036.81 723.25 1043.39 734.17 1042.89 738.00
  C 1042.46 741.36 1036.55 741.54 1033.69 742.02
  A 0.38 0.38 72.9 0 0 1033.41 742.55
  Q 1038.74 753.91 1036.33 766.52
  A 0.44 0.40 -84.1 0 0 1036.72 767.04
  L 1047.70 766.86
  Q 1048.09 766.86 1047.71 766.70
  L 1043.31 764.88
  A 1.03 0.80 -86.8 0 1 1042.79 764.13
  Q 1042.29 760.96 1045.24 760.19
  Q 1050.37 758.84 1065.31 758.11
  C 1108.18 756.01 1143.27 756.61 1206.43 756.78"
/>
<path stroke="#9a9a9a" vector-effect="non-scaling-stroke" d="
  M 605.70 739.66
  C 601.76 745.24 595.08 750.23 593.45 756.71
  Q 593.00 758.51 594.78 758.00
  C 602.85 755.69 605.63 747.54 606.09 739.80
  Q 606.14 739.05 605.70 739.66"
/>
<path stroke="#9a9a9a" vector-effect="non-scaling-stroke" d="
  M 1158.68 768.73
  Q 1245.99 771.48 1333.33 770.15
  A 0.18 0.15 9.5 0 0 1333.49 770.06
  C 1333.59 769.77 1333.50 769.89 1333.35 769.87
  C 1278.08 766.06 1223.38 766.97 1166.07 768.09
  C 1162.46 768.16 1156.74 767.75 1152.04 768.23
  Q 1151.53 768.29 1152.05 768.33
  Q 1155.38 768.63 1158.68 768.73"
/>
<path stroke="#9a9a9a" vector-effect="non-scaling-stroke" d="
  M 984.50 774.02
  C 996.38 776.64 995.22 803.24 993.37 811.72
  A 0.40 0.40 -83.6 0 0 993.76 812.21
  Q 1015.12 812.15 1027.25 812.52
  Q 1110.34 815.04 1193.44 816.99
  C 1234.05 817.94 1274.91 818.51 1315.50 816.49
  C 1324.54 816.04 1337.84 815.78 1346.06 811.97
  A 1.36 1.27 -88.5 0 0 1346.71 811.31
  C 1350.25 803.73 1355.40 798.91 1360.58 793.07
  C 1362.84 790.50 1360.65 789.02 1358.30 788.26
  Q 1346.06 784.26 1332.31 783.66
  C 1294.48 781.99 1256.54 782.34 1218.69 782.88
  C 1160.72 783.71 1102.73 784.96 1044.75 784.72
  Q 1033.42 784.67 1028.76 783.99
  C 1021.38 782.91 1028.86 775.12 1030.40 772.91
  Q 1031.43 771.43 1029.62 771.49
  Q 1004.12 772.38 978.75 773.31
  Q 976.21 773.41 977.67 775.23
  A 0.72 0.66 -28.5 0 0 978.47 775.43
  Q 983.02 773.70 984.50 774.02"
/>
<path stroke="#4f5452" vector-effect="non-scaling-stroke" d="
  M 766.00 777.71
  C 766.63 777.71 774.18 777.68 773.93 777.14
  A 0.49 0.30 -9.0 0 0 773.49 776.96
  L 764.25 777.29"
/>
<path stroke="#959695" vector-effect="non-scaling-stroke" d="
  M 764.25 777.29
  Q 709.96 776.45 655.68 777.54
  C 655.40 777.54 654.09 777.43 654.00 777.52
  Q 653.55 777.97 654.49 778.00
  Q 710.25 779.43 766.00 777.71"
/>
<path stroke="#b0b5b3" vector-effect="non-scaling-stroke" d="
  M 764.25 777.29
  L 766.00 777.71"
/>
<path stroke="#9a9a9a" vector-effect="non-scaling-stroke" d="
  M 825.23 816.20
  Q 824.97 814.44 825.51 813.86
  Q 826.96 812.30 828.99 811.96
  L 880.81 803.20
  A 0.12 0.09 -17.2 0 0 880.91 803.06
  L 880.85 802.95
  A 0.50 0.28 -6.1 0 0 880.47 802.79
  C 782.41 801.19 684.28 803.17 586.26 800.62
  Q 585.77 800.61 586.06 801.02
  C 591.87 809.05 583.59 818.72 577.47 823.75
  Q 576.38 824.64 577.79 824.65
  Q 603.44 824.98 629.81 824.91
  C 723.59 824.65 817.49 824.43 911.25 822.12
  Q 913.73 822.06 916.20 821.67
  Q 916.96 821.55 916.45 820.97
  C 912.28 816.28 908.27 816.33 901.46 816.28
  C 877.96 816.09 854.27 817.32 831.00 817.75
  Q 828.27 817.79 825.78 816.87
  A 0.87 0.83 6.8 0 1 825.23 816.20"
/>
</g>
<path fill="#ffffff" d="
  M 0.00 0.00
  L 1470.00 0.00
  L 1470.00 980.00
  L 0.00 980.00
  L 0.00 0.00
  Z
  M 846.69 813.00
  L 893.99 804.92
  A 3.24 3.19 -78.7 0 0 896.20 803.42
  C 897.86 800.72 894.99 799.78 892.86 799.63
  C 887.74 799.28 882.37 798.67 877.36 798.61
  C 779.89 797.42 682.45 798.09 585.00 796.57
  Q 581.61 796.52 576.96 794.03
  Q 575.40 793.19 573.44 794.50
  A 1.28 1.21 -12.3 0 0 572.91 795.28
  C 572.35 798.09 573.89 799.30 576.59 799.68
  Q 581.10 800.31 583.18 804.19
  C 586.87 811.08 575.07 820.96 570.27 824.26
  Q 567.51 826.16 569.62 827.98
  A 2.18 2.18 -23.8 0 0 570.99 828.51
  C 593.59 829.15 615.22 828.81 637.25 828.78
  Q 778.55 828.58 909.75 826.56
  Q 914.55 826.49 919.52 824.85
  A 1.01 0.83 -30.9 0 1 920.41 824.98
  Q 921.32 825.71 921.27 827.01
  A 0.89 0.81 -12.9 0 1 920.77 827.73
  Q 916.61 829.70 911.93 829.72
  C 655.08 831.26 398.20 831.55 141.34 831.79
  C 98.45 831.83 55.52 831.95 12.62 832.25
  C 10.23 832.27 6.12 831.89 2.76 832.36
  C 0.43 832.69 0.50 835.32 2.65 835.95
  C 4.69 836.54 6.92 836.05 8.43 836.05
  C 286.37 835.70 564.31 835.10 842.25 834.42
  Q 883.43 834.32 912.75 833.79
  Q 918.45 833.69 923.79 830.80
  A 0.48 0.47 61.6 0 1 924.44 831.00
  C 930.16 841.92 949.27 824.54 954.45 820.56
  C 964.53 812.83 958.65 805.64 950.66 800.07
  Q 949.62 799.35 950.88 799.22
  L 971.70 796.94
  Q 974.14 796.67 976.48 795.44
  Q 979.03 794.08 977.73 791.81
  C 975.66 788.19 968.08 790.19 964.79 790.42
  A 0.47 0.45 87.8 0 1 964.30 789.95
  C 964.41 775.72 962.63 757.76 956.02 744.90
  A 0.30 0.30 76.7 0 1 956.29 744.46
  Q 992.19 744.29 1028.08 742.64
  A 0.83 0.81 73.5 0 1 1028.82 743.05
  C 1033.33 750.87 1033.32 758.41 1032.31 766.53
  A 1.03 1.02 2.3 0 1 1031.34 767.42
  L 975.07 769.41
  A 1.67 1.67 7.2 0 0 973.52 770.61
  C 972.54 773.90 973.07 779.54 977.75 779.57
  C 979.51 779.58 981.60 778.43 983.33 778.30
  Q 985.92 778.10 986.91 780.50
  Q 993.20 795.78 988.98 811.50
  A 0.80 0.80 1.8 0 1 988.37 812.07
  L 984.98 812.76
  Q 982.82 813.19 983.41 815.36
  C 984.43 819.05 988.55 817.81 991.06 816.40
  A 1.85 1.81 -58.7 0 1 992.00 816.16
  C 1071.87 817.39 1151.68 820.37 1231.56 821.65
  C 1253.87 822.01 1291.04 822.03 1319.25 820.27
  C 1330.77 819.56 1338.62 818.98 1347.97 815.89
  A 2.29 2.27 -83.9 0 0 1349.19 814.90
  Q 1354.76 805.37 1360.80 798.96
  C 1367.27 792.08 1368.26 786.96 1357.75 783.74
  C 1340.31 778.40 1320.53 778.81 1302.43 778.66
  C 1231.20 778.10 1159.92 779.70 1088.69 780.67
  Q 1059.71 781.07 1030.74 780.29
  Q 1029.94 780.27 1030.49 779.69
  Q 1033.63 776.42 1035.24 771.87
  A 0.74 0.73 -81.0 0 1 1035.90 771.38
  C 1055.86 770.59 1076.01 769.56 1095.99 770.43
  Q 1208.19 775.31 1320.50 774.42
  Q 1333.05 774.32 1352.52 773.75
  Q 1355.11 773.67 1357.26 774.64
  C 1370.37 780.53 1382.90 790.59 1372.83 806.58
  C 1369.43 811.99 1361.06 820.69 1353.98 822.31
  Q 1345.73 824.20 1336.32 824.88
  Q 1308.85 826.86 1284.81 827.02
  C 1240.28 827.31 1195.70 826.40 1151.19 825.04
  Q 1059.57 822.23 968.00 818.01
  C 965.59 817.90 960.85 817.08 960.06 820.23
  A 1.65 1.23 47.3 0 0 960.16 821.17
  Q 962.55 826.79 962.37 831.56
  Q 962.23 835.06 965.73 835.34
  Q 986.56 836.98 1007.44 837.36
  Q 1072.06 838.51 1136.69 838.42
  Q 1284.63 838.23 1432.56 837.04
  Q 1448.91 836.91 1466.46 837.04
  A 2.69 2.67 13.7 0 0 1468.86 835.59
  C 1469.69 833.95 1467.74 832.94 1466.23 832.95
  C 1418.09 833.30 1369.94 833.20 1321.81 833.70
  C 1214.93 834.81 1107.93 835.19 1001.07 832.95
  C 989.71 832.71 978.18 832.72 966.90 831.18
  A 0.65 0.61 89.8 0 1 966.37 830.62
  L 965.39 822.46
  A 0.42 0.40 87.5 0 1 965.80 821.99
  C 1050.69 825.85 1135.60 829.22 1220.56 830.63
  C 1260.82 831.30 1301.34 831.73 1341.49 828.50
  C 1349.47 827.86 1357.34 826.90 1363.75 822.05
  C 1382.69 807.69 1388.90 787.11 1364.45 773.57
  Q 1364.01 773.33 1364.50 773.30
  C 1385.76 772.06 1450.84 769.79 1415.69 728.21
  C 1410.53 722.11 1406.84 717.88 1399.95 715.50
  C 1376.25 707.29 1349.98 708.59 1325.25 708.84
  C 1255.33 709.54 1201.02 711.22 1107.19 713.96
  Q 1091.52 714.42 1045.07 714.96
  A 0.96 0.73 -11.4 0 1 1044.27 714.57
  Q 1043.97 714.03 1044.26 713.51
  A 0.91 0.69 13.2 0 1 1045.06 713.15
  Q 1053.04 713.67 1058.10 707.81
  C 1059.84 705.81 1061.32 705.47 1063.78 705.32
  A 1.39 1.23 18.3 0 0 1064.64 704.95
  Q 1066.95 702.57 1068.22 699.45
  C 1072.81 688.16 1076.97 675.69 1084.37 665.88
  Q 1086.50 663.07 1089.89 664.03
  C 1094.40 665.30 1099.46 666.12 1104.52 666.52
  Q 1123.07 667.96 1141.69 667.40
  C 1190.28 665.91 1238.88 662.26 1287.50 662.66
  C 1300.65 662.77 1359.48 663.22 1355.27 686.94
  Q 1354.85 689.31 1352.46 689.61
  Q 1341.60 690.97 1331.18 691.35
  C 1266.56 693.70 1180.78 690.30 1106.75 692.48
  C 1101.57 692.63 1088.43 692.78 1083.18 696.56
  C 1080.03 698.84 1068.71 701.80 1071.73 706.37
  A 1.45 1.32 -6.2 0 0 1072.50 706.93
  Q 1076.82 708.29 1082.69 708.60
  C 1111.30 710.11 1140.05 709.92 1168.69 709.41
  C 1222.73 708.47 1276.69 706.48 1330.75 706.78
  Q 1342.60 706.85 1354.43 707.60
  C 1356.37 707.72 1358.19 709.00 1360.69 708.39
  C 1368.41 706.50 1372.86 699.13 1374.42 691.42
  C 1378.29 672.29 1366.54 656.05 1348.19 651.25
  C 1346.50 650.81 1346.67 649.47 1348.53 649.46
  C 1353.19 649.42 1353.31 645.65 1350.25 643.33
  C 1347.38 641.14 1342.15 640.17 1341.84 645.12
  A 1.18 1.18 -89.5 0 1 1340.72 646.22
  Q 1296.39 648.11 1252.25 648.83
  Q 1158.78 650.37 1065.30 650.28
  C 1062.44 650.28 1057.82 649.98 1054.07 650.20
  A 1.66 1.21 16.1 0 0 1053.16 650.53
  C 1051.45 652.01 1052.83 653.21 1054.35 653.88
  C 1069.40 660.53 1063.16 690.58 1057.71 701.49
  A 1.62 1.61 -80.0 0 1 1056.45 702.38
  L 1025.95 706.19
  Q 1022.27 706.65 1024.09 709.92
  L 1026.51 714.27
  A 0.29 0.29 -15.0 0 1 1026.26 714.70
  C 1020.20 714.77 1015.47 714.51 1009.73 712.44
  A 1.42 1.34 43.3 0 0 1008.79 712.44
  Q 1004.79 713.98 1008.04 717.21
  Q 1017.81 726.93 1025.72 737.59
  Q 1026.48 738.62 1025.20 738.68
  Q 986.86 740.38 948.50 740.46
  Q 945.96 740.46 944.81 742.55
  A 1.38 1.25 -72.6 0 0 945.74 744.57
  C 952.64 745.00 954.19 749.09 955.76 755.00
  Q 960.45 772.60 960.30 790.26
  A 1.43 1.41 65.1 0 1 959.98 791.16
  C 958.49 792.96 957.24 794.38 954.73 794.72
  C 952.27 795.06 939.24 795.91 946.41 801.84
  C 950.85 805.51 959.58 810.68 953.45 816.14
  Q 950.70 818.60 939.32 826.50
  C 936.84 828.22 927.28 834.43 928.40 827.26
  Q 928.83 824.45 930.12 821.92
  C 936.77 808.78 952.64 782.52 924.19 779.29
  C 906.46 777.28 888.77 776.99 871.05 775.38
  Q 870.55 775.34 871.05 775.27
  C 880.37 774.08 890.69 772.86 899.20 768.70
  Q 901.38 767.63 901.42 765.22
  C 901.67 751.54 905.33 735.68 897.97 723.32
  C 890.75 711.18 876.51 705.22 862.51 703.50
  C 832.35 699.80 806.28 698.41 777.93 697.69
  Q 718.10 696.17 658.26 696.26
  C 642.11 696.28 623.61 696.68 606.23 696.37
  Q 605.73 696.36 606.18 696.14
  C 610.09 694.27 614.71 691.71 619.16 691.87
  C 700.34 694.79 789.86 692.84 867.85 690.33
  C 869.85 690.26 871.13 688.98 870.08 687.04
  A 1.12 0.97 -6.9 0 0 869.32 686.53
  C 863.06 685.43 847.87 680.59 846.72 673.01
  C 846.16 669.34 847.96 662.28 851.22 659.67
  C 855.70 656.09 861.91 657.93 861.76 649.49
  A 0.48 0.47 0.0 0 1 862.25 649.01
  C 867.73 649.17 881.59 650.22 876.19 641.59
  C 873.09 636.64 863.37 637.97 858.22 637.82
  A 1.03 0.99 -16.7 0 1 857.42 637.41
  C 851.34 628.92 852.31 612.74 854.99 603.48
  A 1.44 1.30 -11.7 0 1 855.54 602.73
  Q 858.53 600.67 860.88 597.76
  A 1.35 1.28 -73.9 0 1 861.68 597.29
  Q 874.52 595.12 887.52 594.02
  A 1.60 1.59 88.2 0 0 888.98 592.46
  Q 889.00 591.38 888.24 589.89
  A 0.84 0.75 -11.8 0 0 887.51 589.47
  L 859.30 589.22
  A 1.07 0.94 70.1 0 1 858.52 588.79
  L 853.79 582.39
  A 1.73 1.38 -3.8 0 0 853.00 581.84
  Q 849.84 580.74 848.50 580.69
  Q 790.82 578.42 739.50 579.08
  Q 737.84 579.10 736.77 578.73
  Q 736.22 578.54 736.80 578.53
  C 794.37 577.92 851.98 577.04 909.50 574.47
  Q 919.93 574.00 930.27 572.54
  A 3.74 3.73 -73.2 0 0 932.57 571.30
  C 939.48 563.45 942.65 551.34 938.07 541.60
  C 932.55 529.87 915.72 524.05 903.24 522.26
  Q 880.95 519.04 848.69 518.50
  C 784.50 517.41 719.53 517.83 655.50 522.81
  C 652.46 523.05 642.89 523.53 640.84 525.61
  C 635.94 530.58 650.89 530.66 651.82 530.68
  C 725.80 532.07 799.29 528.22 868.99 531.31
  Q 882.40 531.91 886.00 532.98
  C 891.69 534.68 914.42 543.26 913.60 550.82
  Q 913.22 554.38 908.95 555.05
  Q 890.40 557.97 871.69 559.47
  Q 794.86 565.62 717.81 567.86
  Q 678.92 568.99 654.54 568.53
  A 0.36 0.36 10.5 0 1 654.21 568.05
  C 656.80 561.10 659.98 555.84 655.00 548.78
  A 0.88 0.84 40.2 0 1 654.91 547.93
  Q 657.44 542.21 652.77 539.54
  C 650.83 538.44 638.22 534.03 639.75 540.83
  C 640.44 543.88 646.39 547.48 648.95 549.08
  A 1.17 1.17 -58.4 0 1 649.33 550.68
  Q 645.40 557.17 641.81 564.14
  Q 638.12 571.30 645.99 571.77
  Q 646.87 571.82 646.33 572.53
  L 644.23 575.31
  A 1.05 1.05 -72.3 0 1 643.44 575.72
  L 623.08 576.31
  Q 621.25 576.37 619.92 577.98
  L 613.35 585.92
  A 1.25 1.07 14.4 0 1 612.52 586.33
  Q 599.01 587.22 596.46 587.94
  Q 581.20 592.27 576.05 606.33
  C 569.36 624.57 584.40 636.73 600.52 639.95
  Q 607.15 641.28 616.45 642.10
  Q 616.95 642.15 616.46 642.20
  Q 597.73 644.03 581.76 647.27
  C 575.93 648.45 568.66 650.63 564.67 655.21
  C 550.71 671.24 567.79 688.51 579.78 698.00
  C 580.66 698.70 581.15 699.80 581.96 700.64
  A 1.13 1.07 66.2 0 0 582.80 700.99
  L 588.24 700.86
  Q 588.72 700.84 588.42 701.21
  C 575.98 716.23 594.47 715.86 600.71 723.76
  C 604.58 728.65 603.18 737.14 599.10 741.53
  C 596.13 744.72 592.17 748.47 590.64 752.08
  C 589.38 755.04 587.26 763.18 593.53 762.31
  C 610.18 760.00 612.21 741.01 607.88 728.11
  C 606.09 722.77 606.62 718.35 603.49 713.10
  A 0.29 0.29 -15.6 0 1 603.74 712.66
  C 617.10 712.38 631.10 711.36 643.68 711.29
  C 713.13 710.93 782.65 711.08 852.01 715.01
  Q 862.47 715.60 872.27 720.96
  C 882.02 726.28 900.31 738.81 887.20 751.24
  Q 879.62 758.43 868.80 760.05
  C 851.10 762.70 833.06 763.04 815.19 763.22
  C 744.85 763.95 674.59 762.30 604.26 762.51
  C 593.54 762.54 581.51 762.62 571.05 764.89
  Q 569.08 765.32 568.87 767.16
  L 567.28 781.46
  A 1.06 1.05 -64.3 0 0 567.58 782.33
  Q 568.44 783.22 569.73 783.48
  Q 570.18 783.58 569.80 783.85
  Q 566.91 785.91 564.87 789.12
  A 0.78 0.75 -46.8 0 0 564.88 789.97
  Q 566.94 792.86 571.19 792.91
  Q 591.76 793.17 601.44 792.95
  C 686.21 791.03 771.03 788.80 855.83 788.75
  C 872.95 788.74 890.67 789.17 907.76 790.88
  Q 912.13 791.31 913.40 792.57
  C 919.33 798.45 925.55 810.24 920.84 818.37
  A 0.43 0.43 34.3 0 1 920.20 818.49
  C 917.00 815.92 914.62 813.38 910.36 812.62
  C 905.11 811.68 898.37 811.92 893.00 812.04
  Q 869.87 812.53 846.74 813.50
  Q 842.84 813.66 846.69 813.00
  Z"
/>
<path fill="#343434" d="
  M 846.69 813.00
  Q 842.84 813.66 846.74 813.50
  Q 869.87 812.53 893.00 812.04
  C 898.37 811.92 905.11 811.68 910.36 812.62
  C 914.62 813.38 917.00 815.92 920.20 818.49
  A 0.43 0.43 34.3 0 0 920.84 818.37
  C 925.55 810.24 919.33 798.45 913.40 792.57
  Q 912.13 791.31 907.76 790.88
  C 890.67 789.17 872.95 788.74 855.83 788.75
  C 771.03 788.80 686.21 791.03 601.44 792.95
  Q 591.76 793.17 571.19 792.91
  Q 566.94 792.86 564.88 789.97
  A 0.78 0.75 -46.8 0 1 564.87 789.12
  Q 566.91 785.91 569.80 783.85
  Q 570.18 783.58 569.73 783.48
  Q 568.44 783.22 567.58 782.33
  A 1.06 1.05 -64.3 0 1 567.28 781.46
  L 568.87 767.16
  Q 569.08 765.32 571.05 764.89
  C 581.51 762.62 593.54 762.54 604.26 762.51
  C 674.59 762.30 744.85 763.95 815.19 763.22
  C 833.06 763.04 851.10 762.70 868.80 760.05
  Q 879.62 758.43 887.20 751.24
  C 900.31 738.81 882.02 726.28 872.27 720.96
  Q 862.47 715.60 852.01 715.01
  C 782.65 711.08 713.13 710.93 643.68 711.29
  C 631.10 711.36 617.10 712.38 603.74 712.66
  A 0.29 0.29 -15.6 0 0 603.49 713.10
  C 606.62 718.35 606.09 722.77 607.88 728.11
  C 612.21 741.01 610.18 760.00 593.53 762.31
  C 587.26 763.18 589.38 755.04 590.64 752.08
  C 592.17 748.47 596.13 744.72 599.10 741.53
  C 603.18 737.14 604.58 728.65 600.71 723.76
  C 594.47 715.86 575.98 716.23 588.42 701.21
  Q 588.72 700.84 588.24 700.86
  L 582.80 700.99
  A 1.13 1.07 66.2 0 1 581.96 700.64
  C 581.15 699.80 580.66 698.70 579.78 698.00
  C 567.79 688.51 550.71 671.24 564.67 655.21
  C 568.66 650.63 575.93 648.45 581.76 647.27
  Q 597.73 644.03 616.46 642.20
  Q 616.95 642.15 616.45 642.10
  Q 607.15 641.28 600.52 639.95
  C 584.40 636.73 569.36 624.57 576.05 606.33
  Q 581.20 592.27 596.46 587.94
  Q 599.01 587.22 612.52 586.33
  A 1.25 1.07 14.4 0 0 613.35 585.92
  L 619.92 577.98
  Q 621.25 576.37 623.08 576.31
  L 643.44 575.72
  A 1.05 1.05 -72.3 0 0 644.23 575.31
  L 646.33 572.53
  Q 646.87 571.82 645.99 571.77
  Q 638.12 571.30 641.81 564.14
  Q 645.40 557.17 649.33 550.68
  A 1.17 1.17 -58.4 0 0 648.95 549.08
  C 646.39 547.48 640.44 543.88 639.75 540.83
  C 638.22 534.03 650.83 538.44 652.77 539.54
  Q 657.44 542.21 654.91 547.93
  A 0.88 0.84 40.2 0 0 655.00 548.78
  C 659.98 555.84 656.80 561.10 654.21 568.05
  A 0.36 0.36 10.5 0 0 654.54 568.53
  Q 678.92 568.99 717.81 567.86
  Q 794.86 565.62 871.69 559.47
  Q 890.40 557.97 908.95 555.05
  Q 913.22 554.38 913.60 550.82
  C 914.42 543.26 891.69 534.68 886.00 532.98
  Q 882.40 531.91 868.99 531.31
  C 799.29 528.22 725.80 532.07 651.82 530.68
  C 650.89 530.66 635.94 530.58 640.84 525.61
  C 642.89 523.53 652.46 523.05 655.50 522.81
  C 719.53 517.83 784.50 517.41 848.69 518.50
  Q 880.95 519.04 903.24 522.26
  C 915.72 524.05 932.55 529.87 938.07 541.60
  C 942.65 551.34 939.48 563.45 932.57 571.30
  A 3.74 3.73 -73.2 0 1 930.27 572.54
  Q 919.93 574.00 909.50 574.47
  C 851.98 577.04 794.37 577.92 736.80 578.53
  Q 736.22 578.54 736.77 578.73
  Q 737.84 579.10 739.50 579.08
  Q 790.82 578.42 848.50 580.69
  Q 849.84 580.74 853.00 581.84
  A 1.73 1.38 -3.8 0 1 853.79 582.39
  L 858.52 588.79
  A 1.07 0.94 70.1 0 0 859.30 589.22
  L 887.51 589.47
  A 0.84 0.75 -11.8 0 1 888.24 589.89
  Q 889.00 591.38 888.98 592.46
  A 1.60 1.59 88.2 0 1 887.52 594.02
  Q 874.52 595.12 861.68 597.29
  A 1.35 1.28 -73.9 0 0 860.88 597.76
  Q 858.53 600.67 855.54 602.73
  A 1.44 1.30 -11.7 0 0 854.99 603.48
  C 852.31 612.74 851.34 628.92 857.42 637.41
  A 1.03 0.99 -16.7 0 0 858.22 637.82
  C 863.37 637.97 873.09 636.64 876.19 641.59
  C 881.59 650.22 867.73 649.17 862.25 649.01
  A 0.48 0.47 0.0 0 0 861.76 649.49
  C 861.91 657.93 855.70 656.09 851.22 659.67
  C 847.96 662.28 846.16 669.34 846.72 673.01
  C 847.87 680.59 863.06 685.43 869.32 686.53
  A 1.12 0.97 -6.9 0 1 870.08 687.04
  C 871.13 688.98 869.85 690.26 867.85 690.33
  C 789.86 692.84 700.34 694.79 619.16 691.87
  C 614.71 691.71 610.09 694.27 606.18 696.14
  Q 605.73 696.36 606.23 696.37
  C 623.61 696.68 642.11 696.28 658.26 696.26
  Q 718.10 696.17 777.93 697.69
  C 806.28 698.41 832.35 699.80 862.51 703.50
  C 876.51 705.22 890.75 711.18 897.97 723.32
  C 905.33 735.68 901.67 751.54 901.42 765.22
  Q 901.38 767.63 899.20 768.70
  C 890.69 772.86 880.37 774.08 871.05 775.27
  Q 870.55 775.34 871.05 775.38
  C 888.77 776.99 906.46 777.28 924.19 779.29
  C 952.64 782.52 936.77 808.78 930.12 821.92
  Q 928.83 824.45 928.40 827.26
  C 927.28 834.43 936.84 828.22 939.32 826.50
  Q 950.70 818.60 953.45 816.14
  C 959.58 810.68 950.85 805.51 946.41 801.84
  C 939.24 795.91 952.27 795.06 954.73 794.72
  C 957.24 794.38 958.49 792.96 959.98 791.16
  A 1.43 1.41 65.1 0 0 960.30 790.26
  Q 960.45 772.60 955.76 755.00
  C 954.19 749.09 952.64 745.00 945.74 744.57
  A 1.38 1.25 -72.6 0 1 944.81 742.55
  Q 945.96 740.46 948.50 740.46
  Q 986.86 740.38 1025.20 738.68
  Q 1026.48 738.62 1025.72 737.59
  Q 1017.81 726.93 1008.04 717.21
  Q 1004.79 713.98 1008.79 712.44
  A 1.42 1.34 43.3 0 1 1009.73 712.44
  C 1015.47 714.51 1020.20 714.77 1026.26 714.70
  A 0.29 0.29 -15.0 0 0 1026.51 714.27
  L 1024.09 709.92
  Q 1022.27 706.65 1025.95 706.19
  L 1056.45 702.38
  A 1.62 1.61 -80.0 0 0 1057.71 701.49
  C 1063.16 690.58 1069.40 660.53 1054.35 653.88
  C 1052.83 653.21 1051.45 652.01 1053.16 650.53
  A 1.66 1.21 16.1 0 1 1054.07 650.20
  C 1057.82 649.98 1062.44 650.28 1065.30 650.28
  Q 1158.78 650.37 1252.25 648.83
  Q 1296.39 648.11 1340.72 646.22
  A 1.18 1.18 -89.5 0 0 1341.84 645.12
  C 1342.15 640.17 1347.38 641.14 1350.25 643.33
  C 1353.31 645.65 1353.19 649.42 1348.53 649.46
  C 1346.67 649.47 1346.50 650.81 1348.19 651.25
  C 1366.54 656.05 1378.29 672.29 1374.42 691.42
  C 1372.86 699.13 1368.41 706.50 1360.69 708.39
  C 1358.19 709.00 1356.37 707.72 1354.43 707.60
  Q 1342.60 706.85 1330.75 706.78
  C 1276.69 706.48 1222.73 708.47 1168.69 709.41
  C 1140.05 709.92 1111.30 710.11 1082.69 708.60
  Q 1076.82 708.29 1072.50 706.93
  A 1.45 1.32 -6.2 0 1 1071.73 706.37
  C 1068.71 701.80 1080.03 698.84 1083.18 696.56
  C 1088.43 692.78 1101.57 692.63 1106.75 692.48
  C 1180.78 690.30 1266.56 693.70 1331.18 691.35
  Q 1341.60 690.97 1352.46 689.61
  Q 1354.85 689.31 1355.27 686.94
  C 1359.48 663.22 1300.65 662.77 1287.50 662.66
  C 1238.88 662.26 1190.28 665.91 1141.69 667.40
  Q 1123.07 667.96 1104.52 666.52
  C 1099.46 666.12 1094.40 665.30 1089.89 664.03
  Q 1086.50 663.07 1084.37 665.88
  C 1076.97 675.69 1072.81 688.16 1068.22 699.45
  Q 1066.95 702.57 1064.64 704.95
  A 1.39 1.23 18.3 0 1 1063.78 705.32
  C 1061.32 705.47 1059.84 705.81 1058.10 707.81
  Q 1053.04 713.67 1045.06 713.15
  A 0.91 0.69 13.2 0 0 1044.26 713.51
  Q 1043.97 714.03 1044.27 714.57
  A 0.96 0.73 -11.4 0 0 1045.07 714.96
  Q 1091.52 714.42 1107.19 713.96
  C 1201.02 711.22 1255.33 709.54 1325.25 708.84
  C 1349.98 708.59 1376.25 707.29 1399.95 715.50
  C 1406.84 717.88 1410.53 722.11 1415.69 728.21
  C 1450.84 769.79 1385.76 772.06 1364.50 773.30
  Q 1364.01 773.33 1364.45 773.57
  C 1388.90 787.11 1382.69 807.69 1363.75 822.05
  C 1357.34 826.90 1349.47 827.86 1341.49 828.50
  C 1301.34 831.73 1260.82 831.30 1220.56 830.63
  C 1135.60 829.22 1050.69 825.85 965.80 821.99
  A 0.42 0.40 87.5 0 0 965.39 822.46
  L 966.37 830.62
  A 0.65 0.61 89.8 0 0 966.90 831.18
  C 978.18 832.72 989.71 832.71 1001.07 832.95
  C 1107.93 835.19 1214.93 834.81 1321.81 833.70
  C 1369.94 833.20 1418.09 833.30 1466.23 832.95
  C 1467.74 832.94 1469.69 833.95 1468.86 835.59
  A 2.69 2.67 13.7 0 1 1466.46 837.04
  Q 1448.91 836.91 1432.56 837.04
  Q 1284.63 838.23 1136.69 838.42
  Q 1072.06 838.51 1007.44 837.36
  Q 986.56 836.98 965.73 835.34
  Q 962.23 835.06 962.37 831.56
  Q 962.55 826.79 960.16 821.17
  A 1.65 1.23 47.3 0 1 960.06 820.23
  C 960.85 817.08 965.59 817.90 968.00 818.01
  Q 1059.57 822.23 1151.19 825.04
  C 1195.70 826.40 1240.28 827.31 1284.81 827.02
  Q 1308.85 826.86 1336.32 824.88
  Q 1345.73 824.20 1353.98 822.31
  C 1361.06 820.69 1369.43 811.99 1372.83 806.58
  C 1382.90 790.59 1370.37 780.53 1357.26 774.64
  Q 1355.11 773.67 1352.52 773.75
  Q 1333.05 774.32 1320.50 774.42
  Q 1208.19 775.31 1095.99 770.43
  C 1076.01 769.56 1055.86 770.59 1035.90 771.38
  A 0.74 0.73 -81.0 0 0 1035.24 771.87
  Q 1033.63 776.42 1030.49 779.69
  Q 1029.94 780.27 1030.74 780.29
  Q 1059.71 781.07 1088.69 780.67
  C 1159.92 779.70 1231.20 778.10 1302.43 778.66
  C 1320.53 778.81 1340.31 778.40 1357.75 783.74
  C 1368.26 786.96 1367.27 792.08 1360.80 798.96
  Q 1354.76 805.37 1349.19 814.90
  A 2.29 2.27 -83.9 0 1 1347.97 815.89
  C 1338.62 818.98 1330.77 819.56 1319.25 820.27
  C 1291.04 822.03 1253.87 822.01 1231.56 821.65
  C 1151.68 820.37 1071.87 817.39 992.00 816.16
  A 1.85 1.81 -58.7 0 0 991.06 816.40
  C 988.55 817.81 984.43 819.05 983.41 815.36
  Q 982.82 813.19 984.98 812.76
  L 988.37 812.07
  A 0.80 0.80 1.8 0 0 988.98 811.50
  Q 993.20 795.78 986.91 780.50
  Q 985.92 778.10 983.33 778.30
  C 981.60 778.43 979.51 779.58 977.75 779.57
  C 973.07 779.54 972.54 773.90 973.52 770.61
  A 1.67 1.67 7.2 0 1 975.07 769.41
  L 1031.34 767.42
  A 1.03 1.02 2.3 0 0 1032.31 766.53
  C 1033.32 758.41 1033.33 750.87 1028.82 743.05
  A 0.83 0.81 73.5 0 0 1028.08 742.64
  Q 992.19 744.29 956.29 744.46
  A 0.30 0.30 76.7 0 0 956.02 744.90
  C 962.63 757.76 964.41 775.72 964.30 789.95
  A 0.47 0.45 87.8 0 0 964.79 790.42
  C 968.08 790.19 975.66 788.19 977.73 791.81
  Q 979.03 794.08 976.48 795.44
  Q 974.14 796.67 971.70 796.94
  L 950.88 799.22
  Q 949.62 799.35 950.66 800.07
  C 958.65 805.64 964.53 812.83 954.45 820.56
  C 949.27 824.54 930.16 841.92 924.44 831.00
  A 0.48 0.47 61.6 0 0 923.79 830.80
  Q 918.45 833.69 912.75 833.79
  Q 883.43 834.32 842.25 834.42
  C 564.31 835.10 286.37 835.70 8.43 836.05
  C 6.92 836.05 4.69 836.54 2.65 835.95
  C 0.50 835.32 0.43 832.69 2.76 832.36
  C 6.12 831.89 10.23 832.27 12.62 832.25
  C 55.52 831.95 98.45 831.83 141.34 831.79
  C 398.20 831.55 655.08 831.26 911.93 829.72
  Q 916.61 829.70 920.77 827.73
  A 0.89 0.81 -12.9 0 0 921.27 827.01
  Q 921.32 825.71 920.41 824.98
  A 1.01 0.83 -30.9 0 0 919.52 824.85
  Q 914.55 826.49 909.75 826.56
  Q 778.55 828.58 637.25 828.78
  C 615.22 828.81 593.59 829.15 570.99 828.51
  A 2.18 2.18 -23.8 0 1 569.62 827.98
  Q 567.51 826.16 570.27 824.26
  C 575.07 820.96 586.87 811.08 583.18 804.19
  Q 581.10 800.31 576.59 799.68
  C 573.89 799.30 572.35 798.09 572.91 795.28
  A 1.28 1.21 -12.3 0 1 573.44 794.50
  Q 575.40 793.19 576.96 794.03
  Q 581.61 796.52 585.00 796.57
  C 682.45 798.09 779.89 797.42 877.36 798.61
  C 882.37 798.67 887.74 799.28 892.86 799.63
  C 894.99 799.78 897.86 800.72 896.20 803.42
  A 3.24 3.19 -78.7 0 1 893.99 804.92
  L 846.69 813.00
  Z
  M 659.71 526.50
  Q 655.23 526.79 659.75 526.96
  C 729.69 526.90 799.84 524.80 869.74 527.14
  C 886.37 527.70 899.23 531.73 912.51 541.40
  C 917.64 545.14 920.15 552.16 915.00 556.67
  Q 913.07 558.37 908.05 559.23
  Q 894.74 561.50 883.94 562.45
  Q 813.93 568.63 737.81 571.30
  Q 686.71 573.09 651.81 572.56
  A 0.96 0.90 15.9 0 0 651.03 572.96
  L 649.67 575.00
  Q 649.30 575.55 649.96 575.54
  Q 746.13 574.55 841.25 572.70
  Q 874.76 572.05 908.25 570.53
  Q 918.55 570.06 928.78 568.65
  A 1.51 1.39 16.2 0 0 929.63 568.23
  Q 931.89 565.91 933.54 562.33
  C 946.74 533.66 909.49 526.37 891.18 524.84
  Q 868.97 522.98 846.69 522.60
  Q 784.43 521.54 722.19 523.41
  Q 685.76 524.51 659.71 526.50
  Z
  M 646.43 542.30
  L 650.17 544.93
  A 1.48 1.04 51.8 0 0 651.07 545.20
  C 654.84 544.75 646.80 541.67 646.71 541.65
  Q 644.92 541.25 646.43 542.30
  Z
  M 645.38 567.39
  L 648.62 567.95
  A 0.97 0.64 -61.5 0 0 649.41 567.53
  Q 653.91 561.41 653.46 553.77
  Q 653.34 551.84 652.46 553.44
  L 645.11 566.73
  A 0.45 0.42 -69.3 0 0 645.38 567.39
  Z
  M 619.79 585.80
  C 697.44 583.69 775.29 587.83 852.93 589.23
  A 0.34 0.33 -10.1 0 0 853.26 588.78
  Q 851.79 585.17 847.08 584.89
  Q 829.16 583.84 815.93 583.61
  Q 733.71 582.17 643.27 582.73
  C 641.37 582.74 640.59 582.23 640.40 580.32
  A 0.56 0.51 85.3 0 0 639.87 579.82
  L 625.44 580.39
  Q 622.95 580.49 621.90 581.98
  L 619.52 585.38
  Q 619.22 585.81 619.79 585.80
  Z
  M 607.00 622.29
  Q 608.18 624.48 610.63 624.92
  C 630.94 628.56 652.00 628.69 672.57 629.23
  C 724.34 630.59 776.14 628.30 827.92 630.63
  C 830.99 630.77 839.54 630.34 837.46 635.65
  A 1.91 1.91 -77.3 0 1 835.53 636.87
  Q 834.38 636.79 833.69 637.19
  Q 833.19 637.48 833.80 637.48
  L 849.40 637.69
  Q 850.91 637.71 849.83 636.67
  C 846.29 633.28 838.32 625.02 833.60 624.20
  Q 824.74 622.65 811.75 621.68
  C 765.67 618.25 696.14 617.30 638.50 612.05
  C 635.74 611.80 616.20 610.10 618.39 604.84
  Q 619.43 602.32 622.09 601.73
  C 636.45 598.57 651.29 598.53 665.81 598.43
  C 718.10 598.07 770.31 600.04 822.56 601.46
  C 831.96 601.71 842.72 602.13 851.82 599.47
  A 1.95 1.59 -72.7 0 0 852.62 598.94
  L 855.67 595.43
  Q 857.53 593.30 854.75 593.29
  Q 847.62 593.28 840.82 593.08
  Q 771.64 591.01 702.44 589.72
  C 669.87 589.11 641.52 589.24 616.20 590.17
  A 1.02 1.02 -73.8 0 0 615.40 590.61
  Q 610.25 598.03 603.73 604.32
  A 1.26 1.19 -21.6 0 0 603.34 605.16
  Q 603.01 614.95 607.00 622.29
  Z
  M 585.44 628.56
  C 591.69 633.76 600.86 636.44 608.57 637.16
  C 629.02 639.08 650.44 639.63 671.49 638.88
  C 720.27 637.14 769.69 638.31 817.77 634.99
  Q 824.90 634.49 817.75 634.26
  C 758.69 632.32 699.62 634.87 640.50 632.19
  Q 626.43 631.55 612.51 629.46
  Q 608.08 628.80 604.28 626.41
  A 1.67 1.61 -86.1 0 1 603.66 625.67
  Q 599.61 616.39 598.95 606.15
  Q 598.74 602.84 601.30 600.74
  Q 605.64 597.18 609.67 591.19
  Q 609.95 590.78 609.45 590.79
  C 602.88 590.98 595.51 591.51 590.05 595.14
  C 578.66 602.71 573.36 618.52 585.44 628.56
  Z
  M 625.42 605.92
  C 628.60 606.53 632.00 607.25 635.22 607.56
  C 699.18 613.78 763.56 612.94 827.50 618.99
  C 831.95 619.41 836.88 619.89 840.46 622.92
  Q 844.92 626.71 849.60 630.40
  Q 849.99 630.72 849.91 630.23
  Q 847.67 617.43 850.19 604.76
  A 0.35 0.34 -88.8 0 0 849.80 604.35
  C 839.82 605.91 826.52 605.69 819.50 605.49
  Q 726.54 602.92 708.44 602.71
  C 680.93 602.40 652.91 601.36 625.57 604.88
  C 625.03 604.95 623.77 605.60 625.42 605.92
  Z
  M 706.06 643.44
  C 687.17 643.50 667.96 643.04 649.27 643.94
  Q 621.99 645.25 594.92 649.00
  C 588.24 649.92 581.57 651.45 575.49 653.26
  Q 565.33 656.28 563.97 667.02
  C 562.48 678.79 576.01 689.79 584.20 696.35
  A 1.52 1.45 64.8 0 0 585.08 696.69
  C 589.45 696.89 593.89 697.33 598.00 695.36
  Q 602.27 693.31 606.58 691.31
  Q 607.50 690.88 606.48 690.82
  C 596.23 690.16 584.23 689.59 578.26 679.82
  C 572.45 670.33 588.14 658.59 593.58 652.85
  Q 595.71 650.61 598.75 650.05
  Q 609.55 648.06 620.01 647.33
  Q 646.57 645.47 673.19 644.97
  C 732.55 643.84 791.94 644.17 851.31 644.76
  C 852.83 644.77 854.81 644.83 853.57 642.60
  A 1.36 1.35 -14.0 0 0 852.40 641.90
  C 823.56 641.34 794.82 640.65 766.32 641.68
  Q 718.50 643.40 706.06 643.44
  Z
  M 870.28 642.58
  Q 865.32 641.90 860.30 642.04
  A 0.42 0.36 -10.3 0 0 859.89 642.54
  L 860.76 644.59
  A 0.90 0.61 -6.9 0 0 861.54 644.99
  Q 865.79 644.99 870.02 645.02
  C 873.64 645.06 873.38 643.00 870.28 642.58
  Z
  M 585.44 681.56
  C 592.49 686.55 606.36 687.05 616.16 687.46
  A 0.35 0.27 2.8 0 0 616.51 687.21
  Q 616.53 686.97 616.26 686.93
  C 606.10 685.61 597.26 679.61 597.45 668.44
  C 597.49 666.11 598.40 663.65 600.55 662.76
  C 607.92 659.70 618.40 659.23 626.82 658.73
  C 693.77 654.74 760.83 658.04 827.75 654.03
  Q 839.40 653.33 849.10 649.56
  Q 849.22 649.51 849.29 649.42
  Q 849.37 649.31 849.41 649.21
  A 0.30 0.23 8.7 0 0 849.10 648.89
  Q 787.56 648.11 726.01 648.26
  C 695.43 648.34 664.15 648.79 632.49 650.29
  Q 615.33 651.10 598.79 654.27
  A 3.32 3.28 16.1 0 0 597.01 655.24
  Q 591.80 660.71 586.53 666.19
  C 581.44 671.49 577.82 676.19 585.44 681.56
  Z
  M 607.23 679.24
  C 614.87 684.41 621.53 683.21 630.00 681.22
  C 634.29 680.22 636.16 683.43 631.96 685.41
  Q 629.56 686.53 627.18 687.51
  Q 625.74 688.10 627.30 688.15
  C 703.11 690.53 779.11 688.74 854.90 686.67
  Q 855.82 686.65 854.99 686.25
  C 845.23 681.65 841.21 676.70 843.43 665.48
  Q 845.34 655.82 854.60 653.55
  C 856.88 652.99 857.38 652.38 857.47 650.11
  Q 857.54 648.10 856.11 649.51
  C 849.88 655.63 838.31 657.28 829.79 657.91
  Q 808.63 659.50 790.19 659.69
  C 739.96 660.20 689.70 660.25 639.50 661.90
  Q 622.53 662.46 604.70 665.45
  Q 601.60 665.97 601.44 669.11
  Q 601.15 675.12 607.23 679.24
  Z
  M 1088.69 659.56
  Q 1102.61 663.03 1117.00 663.25
  C 1159.61 663.89 1202.25 660.71 1244.82 659.17
  C 1272.68 658.17 1301.94 657.52 1329.48 662.14
  C 1339.27 663.78 1349.22 666.47 1355.66 674.57
  C 1359.77 679.73 1362.78 692.25 1352.77 693.64
  Q 1343.05 694.99 1337.69 695.21
  C 1260.02 698.44 1182.27 693.81 1104.75 696.76
  C 1099.72 696.95 1090.27 696.93 1086.07 699.77
  Q 1082.56 702.15 1078.47 703.40
  A 0.56 0.42 -16.6 0 0 1078.05 703.96
  C 1078.22 704.52 1095.97 705.27 1097.59 705.30
  C 1153.64 706.34 1209.79 704.63 1265.82 703.11
  C 1291.16 702.41 1319.21 702.04 1337.75 702.78
  C 1347.37 703.17 1353.72 702.94 1359.54 704.39
  A 1.61 1.49 39.8 0 0 1360.50 704.34
  C 1369.98 700.71 1372.20 687.28 1370.43 678.51
  C 1367.91 666.05 1358.63 658.22 1346.69 655.17
  Q 1343.32 654.31 1343.01 650.83
  A 0.76 0.76 85.7 0 0 1342.21 650.14
  Q 1308.65 651.80 1275.06 652.47
  Q 1168.95 654.59 1062.80 654.23
  Q 1062.31 654.23 1062.55 654.65
  C 1070.31 667.97 1068.61 686.58 1062.93 700.36
  Q 1062.75 700.80 1063.14 700.73
  C 1063.48 700.67 1070.59 682.94 1071.36 681.08
  C 1073.41 676.12 1081.36 657.74 1088.69 659.56
  Z
  M 590.65 712.38
  Q 595.72 715.31 601.04 717.93
  Q 601.50 718.16 601.27 717.69
  Q 598.89 712.88 593.72 711.19
  A 1.49 1.19 -1.6 0 1 592.98 710.63
  C 591.52 708.16 593.72 707.34 595.77 707.61
  C 608.15 709.28 617.52 708.27 632.94 707.34
  Q 642.56 706.76 690.25 707.35
  C 743.01 708.00 794.19 707.01 845.50 710.79
  C 853.97 711.41 861.76 711.66 869.39 714.85
  C 882.95 720.51 908.13 738.56 889.04 755.20
  C 878.14 764.70 864.63 765.27 850.81 766.09
  C 812.57 768.37 773.86 768.16 735.57 767.55
  Q 675.50 766.60 615.43 766.46
  C 603.47 766.43 591.66 766.79 580.75 767.48
  Q 577.72 767.67 573.41 768.60
  A 0.82 0.79 0.3 0 0 572.80 769.18
  Q 571.59 773.84 571.68 778.86
  A 0.50 0.49 -1.7 0 0 572.20 779.34
  Q 594.36 778.42 616.52 779.69
  Q 618.72 779.82 619.23 781.96
  C 620.39 786.88 607.01 786.23 604.44 786.23
  Q 589.16 786.26 573.96 787.21
  C 572.08 787.33 568.74 789.10 573.61 789.05
  C 670.43 787.92 767.16 784.42 864.00 784.95
  C 879.78 785.04 896.42 784.79 911.98 787.67
  Q 915.39 788.31 918.11 791.61
  C 925.09 800.06 929.49 810.95 924.08 821.49
  Q 923.41 822.80 924.40 823.26
  A 0.55 0.50 -65.4 0 0 925.09 822.96
  Q 928.86 814.75 932.84 806.64
  C 940.34 791.40 936.69 784.14 919.50 782.73
  Q 882.43 779.67 845.24 778.88
  Q 836.09 778.68 825.27 779.31
  Q 754.48 783.40 683.57 782.42
  C 665.20 782.17 647.31 781.75 629.01 779.88
  Q 625.65 779.53 626.40 776.58
  Q 626.84 774.89 628.58 774.79
  C 635.49 774.38 642.46 773.77 649.15 773.65
  Q 735.55 772.10 821.93 774.20
  C 843.36 774.71 864.91 772.42 886.01 768.79
  Q 891.74 767.81 896.97 765.16
  A 0.83 0.82 -13.7 0 0 897.42 764.43
  Q 897.60 751.28 898.27 746.27
  C 900.90 726.44 887.46 712.59 869.00 708.75
  Q 857.61 706.38 841.68 705.12
  Q 813.47 702.90 785.18 702.01
  C 723.65 700.08 661.99 699.86 600.44 700.73
  Q 597.10 700.77 594.79 701.96
  C 591.43 703.68 584.96 709.08 590.65 712.38
  Z
  M 1043.72 708.43
  Q 1042.91 708.53 1043.73 708.70
  Q 1048.40 709.67 1051.80 707.62
  Q 1052.37 707.27 1051.73 707.36
  L 1043.72 708.43
  Z
  M 1032.44 714.75
  C 1034.62 714.69 1036.30 715.13 1039.14 714.73
  A 1.20 1.19 85.5 0 0 1040.17 713.51
  Q 1040.10 711.17 1040.97 708.95
  A 0.29 0.29 -82.1 0 0 1040.67 708.55
  L 1029.75 709.92
  A 0.40 0.35 -17.3 0 0 1029.43 710.45
  L 1031.64 714.38
  A 0.97 0.68 -10.5 0 0 1032.44 714.75
  Z
  M 1046.71 721.35
  Q 1059.07 722.21 1063.25 722.27
  C 1167.33 723.67 1271.82 722.55 1375.49 725.01
  C 1382.56 725.18 1417.21 724.52 1404.38 741.67
  Q 1399.16 748.64 1393.16 755.78
  A 3.42 3.36 -77.4 0 1 1391.47 756.87
  Q 1385.33 758.56 1378.67 759.04
  Q 1355.09 760.75 1331.44 761.03
  C 1259.87 761.91 1188.32 760.54 1116.75 761.00
  C 1096.70 761.13 1076.86 761.49 1056.84 762.77
  Q 1052.01 763.08 1056.82 763.59
  Q 1081.15 766.22 1105.50 765.49
  Q 1191.11 762.90 1276.75 763.55
  Q 1305.80 763.77 1334.75 766.01
  Q 1343.85 766.72 1352.74 768.69
  Q 1356.47 769.52 1359.83 769.38
  C 1372.29 768.87 1431.65 768.35 1420.28 742.73
  C 1417.29 735.98 1412.30 730.34 1407.30 725.00
  C 1399.22 716.37 1378.60 713.86 1367.18 713.38
  Q 1348.13 712.58 1329.06 712.88
  C 1304.55 713.26 1280.01 713.41 1255.50 714.02
  C 1185.36 715.76 1115.21 718.31 1045.06 719.06
  A 0.83 0.75 10.8 0 0 1044.32 719.51
  C 1043.41 721.52 1045.46 721.26 1046.71 721.35
  Z
  M 1028.94 719.03
  C 1024.46 718.84 1019.98 718.55 1015.46 718.49
  Q 1014.96 718.48 1015.30 718.84
  Q 1023.79 727.46 1030.56 737.50
  A 0.94 0.68 65.2 0 0 1031.33 737.93
  L 1038.02 736.99
  A 0.65 0.62 71.8 0 0 1038.47 736.05
  L 1029.70 719.47
  A 0.97 0.81 -9.9 0 0 1028.94 719.03
  Z
  M 1206.43 756.78
  C 1256.35 756.92 1306.01 757.51 1355.93 756.28
  Q 1371.27 755.90 1386.52 754.06
  Q 1389.20 753.74 1391.02 751.75
  Q 1396.68 745.57 1402.52 737.25
  Q 1404.44 734.52 1401.73 733.03
  C 1395.35 729.52 1388.49 729.47 1380.19 729.04
  Q 1369.09 728.47 1309.93 728.05
  Q 1223.75 727.45 1137.57 726.97
  C 1094.32 726.73 1071.60 727.03 1042.98 725.32
  Q 1040.86 725.20 1040.47 723.15
  L 1039.77 719.56
  A 0.66 0.56 82.5 0 0 1039.18 719.02
  L 1034.91 719.18
  A 0.34 0.31 71.7 0 0 1034.68 719.70
  C 1036.81 723.25 1043.39 734.17 1042.89 738.00
  C 1042.46 741.36 1036.55 741.54 1033.69 742.02
  A 0.38 0.38 72.9 0 0 1033.41 742.55
  Q 1038.74 753.91 1036.33 766.52
  A 0.44 0.40 -84.1 0 0 1036.72 767.04
  L 1047.70 766.86
  Q 1048.09 766.86 1047.71 766.70
  L 1043.31 764.88
  A 1.03 0.80 -86.8 0 1 1042.79 764.13
  Q 1042.29 760.96 1045.24 760.19
  Q 1050.37 758.84 1065.31 758.11
  C 1108.18 756.01 1143.27 756.61 1206.43 756.78
  Z
  M 605.70 739.66
  C 601.76 745.24 595.08 750.23 593.45 756.71
  Q 593.00 758.51 594.78 758.00
  C 602.85 755.69 605.63 747.54 606.09 739.80
  Q 606.14 739.05 605.70 739.66
  Z
  M 1158.68 768.73
  Q 1245.99 771.48 1333.33 770.15
  A 0.18 0.15 9.5 0 0 1333.49 770.06
  C 1333.59 769.77 1333.50 769.89 1333.35 769.87
  C 1278.08 766.06 1223.38 766.97 1166.07 768.09
  C 1162.46 768.16 1156.74 767.75 1152.04 768.23
  Q 1151.53 768.29 1152.05 768.33
  Q 1155.38 768.63 1158.68 768.73
  Z
  M 984.50 774.02
  C 996.38 776.64 995.22 803.24 993.37 811.72
  A 0.40 0.40 -83.6 0 0 993.76 812.21
  Q 1015.12 812.15 1027.25 812.52
  Q 1110.34 815.04 1193.44 816.99
  C 1234.05 817.94 1274.91 818.51 1315.50 816.49
  C 1324.54 816.04 1337.84 815.78 1346.06 811.97
  A 1.36 1.27 -88.5 0 0 1346.71 811.31
  C 1350.25 803.73 1355.40 798.91 1360.58 793.07
  C 1362.84 790.50 1360.65 789.02 1358.30 788.26
  Q 1346.06 784.26 1332.31 783.66
  C 1294.48 781.99 1256.54 782.34 1218.69 782.88
  C 1160.72 783.71 1102.73 784.96 1044.75 784.72
  Q 1033.42 784.67 1028.76 783.99
  C 1021.38 782.91 1028.86 775.12 1030.40 772.91
  Q 1031.43 771.43 1029.62 771.49
  Q 1004.12 772.38 978.75 773.31
  Q 976.21 773.41 977.67 775.23
  A 0.72 0.66 -28.5 0 0 978.47 775.43
  Q 983.02 773.70 984.50 774.02
  Z
  M 766.00 777.71
  C 766.63 777.71 774.18 777.68 773.93 777.14
  A 0.49 0.30 -9.0 0 0 773.49 776.96
  L 764.25 777.29
  Q 709.96 776.45 655.68 777.54
  C 655.40 777.54 654.09 777.43 654.00 777.52
  Q 653.55 777.97 654.49 778.00
  Q 710.25 779.43 766.00 777.71
  Z
  M 825.23 816.20
  Q 824.97 814.44 825.51 813.86
  Q 826.96 812.30 828.99 811.96
  L 880.81 803.20
  A 0.12 0.09 -17.2 0 0 880.91 803.06
  L 880.85 802.95
  A 0.50 0.28 -6.1 0 0 880.47 802.79
  C 782.41 801.19 684.28 803.17 586.26 800.62
  Q 585.77 800.61 586.06 801.02
  C 591.87 809.05 583.59 818.72 577.47 823.75
  Q 576.38 824.64 577.79 824.65
  Q 603.44 824.98 629.81 824.91
  C 723.59 824.65 817.49 824.43 911.25 822.12
  Q 913.73 822.06 916.20 821.67
  Q 916.96 821.55 916.45 820.97
  C 912.28 816.28 908.27 816.33 901.46 816.28
  C 877.96 816.09 854.27 817.32 831.00 817.75
  Q 828.27 817.79 825.78 816.87
  A 0.87 0.83 6.8 0 1 825.23 816.20
  Z"
/>
<path fill="#ffffff" d="
  M 659.75 526.96
  L 659.71 526.50
  Q 685.76 524.51 722.19 523.41
  Q 784.43 521.54 846.69 522.60
  Q 868.97 522.98 891.18 524.84
  C 909.49 526.37 946.74 533.66 933.54 562.33
  Q 931.89 565.91 929.63 568.23
  A 1.51 1.39 16.2 0 1 928.78 568.65
  Q 918.55 570.06 908.25 570.53
  Q 874.76 572.05 841.25 572.70
  Q 746.13 574.55 649.96 575.54
  Q 649.30 575.55 649.67 575.00
  L 651.03 572.96
  A 0.96 0.90 15.9 0 1 651.81 572.56
  Q 686.71 573.09 737.81 571.30
  Q 813.93 568.63 883.94 562.45
  Q 894.74 561.50 908.05 559.23
  Q 913.07 558.37 915.00 556.67
  C 920.15 552.16 917.64 545.14 912.51 541.40
  C 899.23 531.73 886.37 527.70 869.74 527.14
  C 799.84 524.80 729.69 526.90 659.75 526.96
  Z"
/>
<path fill="#69736f" d="
  M 659.71 526.50
  L 659.75 526.96
  Q 655.23 526.79 659.71 526.50
  Z"
/>
<path fill="#ffffff" d="
  M 646.43 542.30
  Q 644.92 541.25 646.71 541.65
  C 646.80 541.67 654.84 544.75 651.07 545.20
  A 1.48 1.04 51.8 0 1 650.17 544.93
  L 646.43 542.30
  Z"
/>
<path fill="#ffffff" d="
  M 645.38 567.39
  A 0.45 0.42 -69.3 0 1 645.11 566.73
  L 652.46 553.44
  Q 653.34 551.84 653.46 553.77
  Q 653.91 561.41 649.41 567.53
  A 0.97 0.64 -61.5 0 1 648.62 567.95
  L 645.38 567.39
  Z"
/>
<path fill="#ffffff" d="
  M 852.93 589.23
  C 775.29 587.83 697.44 583.69 619.79 585.80
  Q 619.22 585.81 619.52 585.38
  L 621.90 581.98
  Q 622.95 580.49 625.44 580.39
  L 639.87 579.82
  A 0.56 0.51 85.3 0 1 640.40 580.32
  C 640.59 582.23 641.37 582.74 643.27 582.73
  Q 733.71 582.17 815.93 583.61
  Q 829.16 583.84 847.08 584.89
  Q 851.79 585.17 853.26 588.78
  A 0.34 0.33 -10.1 0 1 852.93 589.23
  Z"
/>
<path fill="#ffffff" d="
  M 607.00 622.29
  Q 603.01 614.95 603.34 605.16
  A 1.26 1.19 -21.6 0 1 603.73 604.32
  Q 610.25 598.03 615.40 590.61
  A 1.02 1.02 -73.3 0 1 616.20 590.17
  C 641.52 589.24 669.87 589.11 702.44 589.72
  Q 771.64 591.01 840.82 593.08
  Q 847.62 593.28 854.75 593.29
  Q 857.53 593.30 855.67 595.43
  L 852.62 598.94
  A 1.95 1.59 -72.7 0 1 851.82 599.47
  C 842.72 602.13 831.96 601.71 822.56 601.46
  C 770.31 600.04 718.10 598.07 665.81 598.43
  C 651.29 598.53 636.45 598.57 622.09 601.73
  Q 619.43 602.32 618.39 604.84
  C 616.20 610.10 635.74 611.80 638.50 612.05
  C 696.14 617.30 765.67 618.25 811.75 621.68
  Q 824.74 622.65 833.60 624.20
  C 838.32 625.02 846.29 633.28 849.83 636.67
  Q 850.91 637.71 849.40 637.69
  L 833.80 637.48
  Q 833.19 637.48 833.69 637.19
  Q 834.38 636.79 835.53 636.87
  A 1.91 1.91 -77.3 0 0 837.46 635.65
  C 839.54 630.34 830.99 630.77 827.92 630.63
  C 776.14 628.30 724.34 630.59 672.57 629.23
  C 652.00 628.69 630.94 628.56 610.63 624.92
  Q 608.18 624.48 607.00 622.29
  Z"
/>
<path fill="#ffffff" d="
  M 585.44 628.56
  C 573.36 618.52 578.66 602.71 590.05 595.14
  C 595.51 591.51 602.88 590.98 609.45 590.79
  Q 609.95 590.78 609.67 591.19
  Q 605.64 597.18 601.30 600.74
  Q 598.74 602.84 598.95 606.15
  Q 599.61 616.39 603.66 625.67
  A 1.67 1.61 -86.1 0 0 604.28 626.41
  Q 608.08 628.80 612.51 629.46
  Q 626.43 631.55 640.50 632.19
  C 699.62 634.87 758.69 632.32 817.75 634.26
  Q 824.90 634.49 817.77 634.99
  C 769.69 638.31 720.27 637.14 671.49 638.88
  C 650.44 639.63 629.02 639.08 608.57 637.16
  C 600.86 636.44 591.69 633.76 585.44 628.56
  Z"
/>
<path fill="#ffffff" d="
  M 625.42 605.92
  C 623.77 605.60 625.03 604.95 625.57 604.88
  C 652.91 601.36 680.93 602.40 708.44 602.71
  Q 726.54 602.92 819.50 605.49
  C 826.52 605.69 839.82 605.91 849.80 604.35
  A 0.35 0.34 -88.8 0 1 850.19 604.76
  Q 847.67 617.43 849.91 630.23
  Q 849.99 630.72 849.60 630.40
  Q 844.92 626.71 840.46 622.92
  C 836.88 619.89 831.95 619.41 827.50 618.99
  C 763.56 612.94 699.18 613.78 635.22 607.56
  C 632.00 607.25 628.60 606.53 625.42 605.92
  Z"
/>
<path fill="#ffffff" d="
  M 706.06 643.44
  Q 718.50 643.40 766.32 641.68
  C 794.82 640.65 823.56 641.34 852.40 641.90
  A 1.36 1.35 -14.0 0 1 853.57 642.60
  C 854.81 644.83 852.83 644.77 851.31 644.76
  C 791.94 644.17 732.55 643.84 673.19 644.97
  Q 646.57 645.47 620.01 647.33
  Q 609.55 648.06 598.75 650.05
  Q 595.71 650.61 593.58 652.85
  C 588.14 658.59 572.45 670.33 578.26 679.82
  C 584.23 689.59 596.23 690.16 606.48 690.82
  Q 607.50 690.88 606.58 691.31
  Q 602.27 693.31 598.00 695.36
  C 593.89 697.33 589.45 696.89 585.08 696.69
  A 1.52 1.45 64.8 0 1 584.20 696.35
  C 576.01 689.79 562.48 678.79 563.97 667.02
  Q 565.33 656.28 575.49 653.26
  C 581.57 651.45 588.24 649.92 594.92 649.00
  Q 621.99 645.25 649.27 643.94
  C 667.96 643.04 687.17 643.50 706.06 643.44
  Z"
/>
<path fill="#ffffff" d="
  M 870.28 642.58
  C 873.38 643.00 873.64 645.06 870.02 645.02
  Q 865.79 644.99 861.54 644.99
  A 0.90 0.61 -6.9 0 1 860.76 644.59
  L 859.89 642.54
  A 0.42 0.36 -10.3 0 1 860.30 642.04
  Q 865.32 641.90 870.28 642.58
  Z"
/>
<path fill="#ffffff" d="
  M 585.44 681.56
  C 577.82 676.19 581.44 671.49 586.53 666.19
  Q 591.80 660.71 597.01 655.24
  A 3.32 3.28 16.1 0 1 598.79 654.27
  Q 615.33 651.10 632.49 650.29
  C 664.15 648.79 695.43 648.34 726.01 648.26
  Q 787.56 648.11 849.10 648.89
  A 0.30 0.23 8.7 0 1 849.41 649.21
  Q 849.37 649.31 849.29 649.42
  Q 849.22 649.51 849.10 649.56
  Q 839.40 653.33 827.75 654.03
  C 760.83 658.04 693.77 654.74 626.82 658.73
  C 618.40 659.23 607.92 659.70 600.55 662.76
  C 598.40 663.65 597.49 666.11 597.45 668.44
  C 597.26 679.61 606.10 685.61 616.26 686.93
  Q 616.53 686.97 616.51 687.21
  A 0.35 0.27 2.8 0 1 616.16 687.46
  C 606.36 687.05 592.49 686.55 585.44 681.56
  Z"
/>
<path fill="#ffffff" d="
  M 607.23 679.24
  Q 601.15 675.12 601.44 669.11
  Q 601.60 665.97 604.70 665.45
  Q 622.53 662.46 639.50 661.90
  C 689.70 660.25 739.96 660.20 790.19 659.69
  Q 808.63 659.50 829.79 657.91
  C 838.31 657.28 849.88 655.63 856.11 649.51
  Q 857.54 648.10 857.47 650.11
  C 857.38 652.38 856.88 652.99 854.60 653.55
  Q 845.34 655.82 843.43 665.48
  C 841.21 676.70 845.23 681.65 854.99 686.25
  Q 855.82 686.65 854.90 686.67
  C 779.11 688.74 703.11 690.53 627.30 688.15
  Q 625.74 688.10 627.18 687.51
  Q 629.56 686.53 631.96 685.41
  C 636.16 683.43 634.29 680.22 630.00 681.22
  C 621.53 683.21 614.87 684.41 607.23 679.24
  Z"
/>
<path fill="#ffffff" d="
  M 1088.69 659.56
  C 1081.36 657.74 1073.41 676.12 1071.36 681.08
  C 1070.59 682.94 1063.48 700.67 1063.14 700.73
  Q 1062.75 700.80 1062.93 700.36
  C 1068.61 686.58 1070.31 667.97 1062.55 654.65
  Q 1062.31 654.23 1062.80 654.23
  Q 1168.95 654.59 1275.06 652.47
  Q 1308.65 651.80 1342.21 650.14
  A 0.76 0.76 85.7 0 1 1343.01 650.83
  Q 1343.32 654.31 1346.69 655.17
  C 1358.63 658.22 1367.91 666.05 1370.43 678.51
  C 1372.20 687.28 1369.98 700.71 1360.50 704.34
  A 1.61 1.49 39.8 0 1 1359.54 704.39
  C 1353.72 702.94 1347.37 703.17 1337.75 702.78
  C 1319.21 702.04 1291.16 702.41 1265.82 703.11
  C 1209.79 704.63 1153.64 706.34 1097.59 705.30
  C 1095.97 705.27 1078.22 704.52 1078.05 703.96
  A 0.56 0.42 -16.6 0 1 1078.47 703.40
  Q 1082.56 702.15 1086.07 699.77
  C 1090.27 696.93 1099.72 696.95 1104.75 696.76
  C 1182.27 693.81 1260.02 698.44 1337.69 695.21
  Q 1343.05 694.99 1352.77 693.64
  C 1362.78 692.25 1359.77 679.73 1355.66 674.57
  C 1349.22 666.47 1339.27 663.78 1329.48 662.14
  C 1301.94 657.52 1272.68 658.17 1244.82 659.17
  C 1202.25 660.71 1159.61 663.89 1117.00 663.25
  Q 1102.61 663.03 1088.69 659.56
  Z"
/>
<path fill="#ffffff" d="
  M 590.65 712.38
  C 584.96 709.08 591.43 703.68 594.79 701.96
  Q 597.10 700.77 600.44 700.73
  C 661.99 699.86 723.65 700.08 785.18 702.01
  Q 813.47 702.90 841.68 705.12
  Q 857.61 706.38 869.00 708.75
  C 887.46 712.59 900.90 726.44 898.27 746.27
  Q 897.60 751.28 897.42 764.43
  A 0.83 0.82 -13.7 0 1 896.97 765.16
  Q 891.74 767.81 886.01 768.79
  C 864.91 772.42 843.36 774.71 821.93 774.20
  Q 735.55 772.10 649.15 773.65
  C 642.46 773.77 635.49 774.38 628.58 774.79
  Q 626.84 774.89 626.40 776.58
  Q 625.65 779.53 629.01 779.88
  C 647.31 781.75 665.20 782.17 683.57 782.42
  Q 754.48 783.40 825.27 779.31
  Q 836.09 778.68 845.24 778.88
  Q 882.43 779.67 919.50 782.73
  C 936.69 784.14 940.34 791.40 932.84 806.64
  Q 928.86 814.75 925.09 822.96
  A 0.55 0.50 -65.4 0 1 924.40 823.26
  Q 923.41 822.80 924.08 821.49
  C 929.49 810.95 925.09 800.06 918.11 791.61
  Q 915.39 788.31 911.98 787.67
  C 896.42 784.79 879.78 785.04 864.00 784.95
  C 767.16 784.42 670.43 787.92 573.61 789.05
  C 568.74 789.10 572.08 787.33 573.96 787.21
  Q 589.16 786.26 604.44 786.23
  C 607.01 786.23 620.39 786.88 619.23 781.96
  Q 618.72 779.82 616.52 779.69
  Q 594.36 778.42 572.20 779.34
  A 0.50 0.49 -1.7 0 1 571.68 778.86
  Q 571.59 773.84 572.80 769.18
  A 0.82 0.79 0.3 0 1 573.41 768.60
  Q 577.72 767.67 580.75 767.48
  C 591.66 766.79 603.47 766.43 615.43 766.46
  Q 675.50 766.60 735.57 767.55
  C 773.86 768.16 812.57 768.37 850.81 766.09
  C 864.63 765.27 878.14 764.70 889.04 755.20
  C 908.13 738.56 882.95 720.51 869.39 714.85
  C 861.76 711.66 853.97 711.41 845.50 710.79
  C 794.19 707.01 743.01 708.00 690.25 707.35
  Q 642.56 706.76 632.94 707.34
  C 617.52 708.27 608.15 709.28 595.77 707.61
  C 593.72 707.34 591.52 708.16 592.98 710.63
  A 1.49 1.19 -1.6 0 0 593.72 711.19
  Q 598.89 712.88 601.27 717.69
  Q 601.50 718.16 601.04 717.93
  Q 595.72 715.31 590.65 712.38
  Z"
/>
<path fill="#ffffff" d="
  M 1043.72 708.43
  L 1051.73 707.36
  Q 1052.37 707.27 1051.80 707.62
  Q 1048.40 709.67 1043.73 708.70
  Q 1042.91 708.53 1043.72 708.43
  Z"
/>
<path fill="#ffffff" d="
  M 1039.14 714.73
  C 1036.30 715.13 1034.62 714.69 1032.44 714.75
  A 0.97 0.68 -10.5 0 1 1031.64 714.38
  L 1029.43 710.45
  A 0.40 0.35 -17.3 0 1 1029.75 709.92
  L 1040.67 708.55
  A 0.29 0.29 -82.1 0 1 1040.97 708.95
  Q 1040.10 711.17 1040.17 713.51
  A 1.20 1.19 85.5 0 1 1039.14 714.73
  Z"
/>
<path fill="#ffffff" d="
  M 1046.71 721.35
  C 1045.46 721.26 1043.41 721.52 1044.32 719.51
  A 0.83 0.75 10.8 0 1 1045.06 719.06
  C 1115.21 718.31 1185.36 715.76 1255.50 714.02
  C 1280.01 713.41 1304.55 713.26 1329.06 712.88
  Q 1348.13 712.58 1367.18 713.38
  C 1378.60 713.86 1399.22 716.37 1407.30 725.00
  C 1412.30 730.34 1417.29 735.98 1420.28 742.73
  C 1431.65 768.35 1372.29 768.87 1359.83 769.38
  Q 1356.47 769.52 1352.74 768.69
  Q 1343.85 766.72 1334.75 766.01
  Q 1305.80 763.77 1276.75 763.55
  Q 1191.11 762.90 1105.50 765.49
  Q 1081.15 766.22 1056.82 763.59
  Q 1052.01 763.08 1056.84 762.77
  C 1076.86 761.49 1096.70 761.13 1116.75 761.00
  C 1188.32 760.54 1259.87 761.91 1331.44 761.03
  Q 1355.09 760.75 1378.67 759.04
  Q 1385.33 758.56 1391.47 756.87
  A 3.42 3.36 -77.4 0 0 1393.16 755.78
  Q 1399.16 748.64 1404.38 741.67
  C 1417.21 724.52 1382.56 725.18 1375.49 725.01
  C 1271.82 722.55 1167.33 723.67 1063.25 722.27
  Q 1059.07 722.21 1046.71 721.35
  Z"
/>
<path fill="#ffffff" d="
  M 1015.46 718.49
  C 1019.98 718.55 1024.46 718.84 1028.94 719.03
  A 0.97 0.81 -9.9 0 1 1029.70 719.47
  L 1038.47 736.05
  A 0.65 0.62 71.8 0 1 1038.02 736.99
  L 1031.33 737.93
  A 0.94 0.68 65.2 0 1 1030.56 737.50
  Q 1023.79 727.46 1015.30 718.84
  Q 1014.96 718.48 1015.46 718.49
  Z"
/>
<path fill="#ffffff" d="
  M 1206.43 756.78
  C 1143.27 756.61 1108.18 756.01 1065.31 758.11
  Q 1050.37 758.84 1045.24 760.19
  Q 1042.29 760.96 1042.79 764.13
  A 1.03 0.80 -86.8 0 0 1043.31 764.88
  L 1047.71 766.70
  Q 1048.09 766.86 1047.70 766.86
  L 1036.72 767.04
  A 0.44 0.40 -84.1 0 1 1036.33 766.52
  Q 1038.74 753.91 1033.41 742.55
  A 0.38 0.38 72.9 0 1 1033.69 742.02
  C 1036.55 741.54 1042.46 741.36 1042.89 738.00
  C 1043.39 734.17 1036.81 723.25 1034.68 719.70
  A 0.34 0.31 71.7 0 1 1034.91 719.18
  L 1039.18 719.02
  A 0.66 0.56 82.5 0 1 1039.77 719.56
  L 1040.47 723.15
  Q 1040.86 725.20 1042.98 725.32
  C 1071.60 727.03 1094.32 726.73 1137.57 726.97
  Q 1223.75 727.45 1309.93 728.05
  Q 1369.09 728.47 1380.19 729.04
  C 1388.49 729.47 1395.35 729.52 1401.73 733.03
  Q 1404.44 734.52 1402.52 737.25
  Q 1396.68 745.57 1391.02 751.75
  Q 1389.20 753.74 1386.52 754.06
  Q 1371.27 755.90 1355.93 756.28
  C 1306.01 757.51 1256.35 756.92 1206.43 756.78
  Z"
/>
<path fill="#ffffff" d="
  M 605.70 739.66
  Q 606.14 739.05 606.09 739.80
  C 605.63 747.54 602.85 755.69 594.78 758.00
  Q 593.00 758.51 593.45 756.71
  C 595.08 750.23 601.76 745.24 605.70 739.66
  Z"
/>
<path fill="#ffffff" d="
  M 1158.68 768.73
  Q 1155.38 768.63 1152.05 768.33
  Q 1151.53 768.29 1152.04 768.23
  C 1156.74 767.75 1162.46 768.16 1166.07 768.09
  C 1223.38 766.97 1278.08 766.06 1333.35 769.87
  C 1333.50 769.89 1333.59 769.77 1333.49 770.06
  A 0.18 0.15 9.5 0 1 1333.33 770.15
  Q 1245.99 771.48 1158.68 768.73
  Z"
/>
<path fill="#ffffff" d="
  M 993.37 811.72
  C 995.22 803.24 996.38 776.64 984.50 774.02
  Q 983.02 773.70 978.47 775.43
  A 0.72 0.66 -28.5 0 1 977.67 775.23
  Q 976.21 773.41 978.75 773.31
  Q 1004.12 772.38 1029.62 771.49
  Q 1031.43 771.43 1030.40 772.91
  C 1028.86 775.12 1021.38 782.91 1028.76 783.99
  Q 1033.42 784.67 1044.75 784.72
  C 1102.73 784.96 1160.72 783.71 1218.69 782.88
  C 1256.54 782.34 1294.48 781.99 1332.31 783.66
  Q 1346.06 784.26 1358.30 788.26
  C 1360.65 789.02 1362.84 790.50 1360.58 793.07
  C 1355.40 798.91 1350.25 803.73 1346.71 811.31
  A 1.36 1.27 -88.5 0 1 1346.06 811.97
  C 1337.84 815.78 1324.54 816.04 1315.50 816.49
  C 1274.91 818.51 1234.05 817.94 1193.44 816.99
  Q 1110.34 815.04 1027.25 812.52
  Q 1015.12 812.15 993.76 812.21
  A 0.40 0.40 -83.6 0 1 993.37 811.72
  Z"
/>
<path fill="#f6f7f6" d="
  M 764.25 777.29
  L 766.00 777.71
  Q 710.25 779.43 654.49 778.00
  Q 653.55 777.97 654.00 777.52
  C 654.09 777.43 655.40 777.54 655.68 777.54
  Q 709.96 776.45 764.25 777.29
  Z"
/>
<path fill="#69736f" d="
  M 766.00 777.71
  L 764.25 777.29
  L 773.49 776.96
  A 0.49 0.30 -9.0 0 1 773.93 777.14
  C 774.18 777.68 766.63 777.71 766.00 777.71
  Z"
/>
<path fill="#ffffff" d="
  M 825.78 816.87
  Q 828.27 817.79 831.00 817.75
  C 854.27 817.32 877.96 816.09 901.46 816.28
  C 908.27 816.33 912.28 816.28 916.45 820.97
  Q 916.96 821.55 916.20 821.67
  Q 913.73 822.06 911.25 822.12
  C 817.49 824.43 723.59 824.65 629.81 824.91
  Q 603.44 824.98 577.79 824.65
  Q 576.38 824.64 577.47 823.75
  C 583.59 818.72 591.87 809.05 586.06 801.02
  Q 585.77 800.61 586.26 800.62
  C 684.28 803.17 782.41 801.19 880.47 802.79
  A 0.50 0.28 -6.1 0 1 880.85 802.95
  L 880.91 803.06
  A 0.12 0.09 -17.2 0 1 880.81 803.20
  L 828.99 811.96
  Q 826.96 812.30 825.51 813.86
  Q 824.97 814.44 825.23 816.20
  A 0.87 0.83 6.8 0 0 825.78 816.87
  Z"
/>
</svg>
