<?xml version="1.0" encoding="UTF-8" standalone="no"?>
<!DOCTYPE svg PUBLIC "-//W3C//DTD SVG 1.1//EN" "http://www.w3.org/Graphics/SVG/1.1/DTD/svg11.dtd">
<svg xmlns="http://www.w3.org/2000/svg" version="1.1" viewBox="0.00 0.00 1080.00 1080.00">
<path fill="#90abc4" d="
  M 496.82 509.42
  C 517.03 519.16 538.42 515.96 554.84 501.35
  Q 573.73 484.53 576.03 457.75
  C 576.39 453.54 575.28 448.67 574.94 445.41
  Q 573.98 436.20 570.06 428.98
  Q 554.28 399.89 521.99 390.75
  Q 520.43 390.30 517.38 389.87
  C 515.20 389.56 513.50 388.97 511.19 389.03
  Q 508.41 389.09 505.73 388.40
  C 501.29 387.26 497.76 388.83 493.44 389.06
  C 477.84 389.87 462.69 398.53 451.09 409.34
  Q 427.43 431.39 421.91 461.90
  Q 420.99 466.97 421.00 474.19
  C 421.00 479.69 420.73 485.32 421.65 490.60
  Q 429.01 532.96 464.07 557.40
  C 486.54 573.06 514.12 580.09 541.46 577.01
  Q 580.22 572.65 608.58 545.27
  Q 608.63 545.22 612.27 542.09
  C 614.25 540.38 615.71 538.03 617.35 536.35
  Q 622.29 531.28 626.91 524.72
  Q 655.64 483.96 652.34 433.76
  C 650.39 404.02 639.03 377.52 620.35 354.46
  C 617.46 350.89 613.39 346.90 609.87 343.03
  Q 607.30 340.19 605.57 338.53
  C 548.56 283.47 456.93 275.27 391.44 319.51
  Q 361.62 339.65 341.27 366.24
  Q 288.71 434.92 297.84 522.07
  C 301.47 556.72 314.13 589.55 333.91 618.54
  Q 334.38 619.22 333.65 619.62
  Q 332.00 620.52 329.77 621.25
  C 285.35 635.94 244.07 658.56 204.92 684.68
  C 189.80 694.76 175.52 705.65 162.93 718.33
  C 145.80 735.58 129.33 757.16 119.49 779.57
  C 117.91 783.15 115.97 786.87 114.61 790.21
  Q 107.98 806.51 104.24 823.75
  Q 103.71 826.17 103.73 828.52
  A 0.66 0.65 -74.2 0 1 102.73 829.08
  Q 102.53 828.96 102.22 828.53
  C 28.74 724.75 -0.81 599.28 17.61 473.22
  C 31.48 378.25 72.42 288.79 136.16 216.92
  Q 148.42 203.10 160.40 191.15
  Q 163.35 188.22 167.99 184.27
  Q 171.91 180.94 175.69 177.47
  Q 211.79 144.26 251.56 120.82
  Q 274.52 107.28 303.05 95.87
  Q 377.09 66.25 457.00 67.95
  C 483.48 68.51 509.96 71.51 535.76 77.52
  C 557.03 82.48 574.84 87.45 595.05 95.57
  Q 687.43 132.67 751.41 209.35
  C 767.86 229.07 782.44 250.13 793.97 272.78
  Q 825.97 335.57 827.99 405.75
  Q 829.99 475.21 802.05 539.90
  Q 773.47 606.07 717.92 654.16
  Q 664.92 700.04 596.96 712.51
  Q 528.00 725.16 462.65 700.57
  Q 423.20 685.72 391.25 658.71
  C 382.30 651.15 371.26 640.16 363.90 632.10
  Q 360.67 628.56 352.78 617.99
  Q 313.64 565.55 312.23 500.48
  Q 312.01 490.46 312.90 480.51
  Q 318.39 419.61 356.59 371.84
  C 359.41 368.31 363.73 364.03 367.20 359.95
  Q 369.25 357.55 371.72 355.47
  C 375.78 352.06 379.60 347.98 383.44 344.89
  Q 395.78 334.94 403.43 330.21
  Q 441.29 306.84 485.98 307.02
  C 537.59 307.23 583.25 330.23 613.47 371.62
  C 646.92 417.44 643.57 482.59 606.84 525.34
  C 602.16 530.79 593.71 539.17 587.32 544.08
  C 552.51 570.80 504.12 570.63 469.39 544.42
  C 451.05 530.56 437.71 510.82 434.84 487.76
  C 431.54 461.32 441.83 436.69 462.34 419.59
  Q 480.48 404.46 503.91 404.94
  Q 505.63 404.98 509.06 405.58
  C 511.43 406.00 513.74 405.98 515.94 406.57
  Q 538.01 412.48 550.84 429.92
  C 556.59 437.73 560.65 450.76 558.44 460.92
  C 558.01 462.94 558.02 464.98 557.50 466.82
  C 553.47 480.99 542.37 495.40 527.63 499.15
  C 513.03 502.86 497.58 496.56 489.27 484.42
  Q 486.33 480.13 485.44 475.48
  C 484.65 471.31 484.56 466.48 486.11 462.45
  C 488.54 456.16 494.55 447.55 501.35 445.40
  C 505.55 444.07 508.14 443.22 512.31 445.24
  A 0.35 0.35 0.0 0 1 512.13 445.91
  Q 498.03 444.96 492.04 456.77
  Q 491.25 458.32 490.82 460.93
  C 490.48 463.02 489.80 464.52 490.05 466.67
  C 491.63 480.49 501.75 489.77 515.58 489.22
  C 527.63 488.75 537.75 480.07 541.16 468.59
  C 542.72 463.35 542.57 454.76 540.54 449.61
  C 534.68 434.77 519.42 426.76 504.00 428.04
  C 485.26 429.59 471.32 446.56 469.91 464.80
  C 468.44 483.99 479.55 501.10 496.82 509.42
  Z"
/>
<path fill="#90abc4" d="
  M 976.02 276.08
  Q 975.80 283.26 981.22 288.83
  C 984.31 292.01 987.71 293.69 992.30 292.51
  Q 1005.57 289.10 1010.24 288.00
  Q 1012.51 287.47 1013.74 289.51
  Q 1016.62 294.24 1018.03 298.83
  A 1.89 1.87 73.1 0 1 1016.78 301.19
  C 1008.80 303.57 1000.43 306.79 993.32 309.00
  Q 980.02 313.14 966.84 317.64
  Q 962.77 319.03 950.46 322.63
  Q 940.93 325.42 931.78 329.35
  C 930.47 329.91 928.97 330.05 927.55 330.48
  Q 914.90 334.30 902.46 338.77
  C 897.36 340.61 891.54 340.81 886.16 342.43
  Q 883.67 343.18 882.30 342.61
  C 878.33 340.95 874.98 331.73 873.92 328.45
  Q 873.75 327.93 874.13 327.54
  C 877.24 324.28 880.11 321.28 883.92 318.45
  C 889.45 314.33 894.40 309.62 900.18 305.75
  C 904.21 303.05 907.45 299.95 911.77 297.34
  C 915.39 295.15 918.46 292.03 921.48 289.96
  Q 932.13 282.64 942.74 275.26
  C 949.50 270.54 957.23 263.86 964.19 259.45
  C 970.90 255.18 979.86 247.93 988.39 242.80
  A 0.64 0.64 0.0 0 1 989.14 242.87
  Q 994.44 247.63 996.23 254.47
  A 1.91 1.89 -24.9 0 1 995.48 256.50
  Q 988.81 261.15 982.26 266.21
  C 978.97 268.76 976.15 271.68 976.02 276.08
  Z
  M 953.60 306.48
  C 956.80 305.01 959.92 304.75 962.58 302.20
  Q 963.00 301.80 963.00 301.21
  L 963.02 293.27
  A 1.60 1.55 28.4 0 0 962.72 292.32
  C 961.01 289.98 959.42 287.53 956.40 286.97
  C 951.98 286.15 948.53 289.13 945.19 291.28
  Q 942.62 292.94 940.25 294.73
  Q 928.09 303.94 915.44 312.49
  C 913.88 313.54 909.97 315.91 910.03 318.04
  A 2.12 2.12 0.0 0 0 912.70 320.03
  Q 931.53 314.94 949.96 307.96
  Q 952.18 307.12 953.60 306.48
  Z"
/>
<path fill="#90abc4" d="
  M 1050.23 452.39
  L 918.31 463.21
  A 4.11 4.11 0.0 0 1 913.96 459.99
  L 912.62 453.85
  A 4.11 4.11 0.0 0 1 916.28 448.88
  L 1049.54 437.44
  A 4.11 4.11 0.0 0 1 1054.00 441.54
  L 1054.00 448.29
  A 4.11 4.11 0.0 0 1 1050.23 452.39
  Z"
/>
<path fill="#90abc4" d="
  M 952.93 625.58
  Q 946.73 623.05 937.38 621.12
  Q 934.87 620.61 931.35 619.13
  C 928.16 617.79 924.51 617.20 921.58 616.11
  C 916.60 614.27 912.99 613.09 906.67 611.45
  Q 900.39 609.81 895.26 606.44
  C 891.71 604.10 891.59 600.76 892.67 596.70
  Q 894.09 591.39 895.61 586.11
  Q 896.50 583.02 898.27 580.82
  Q 904.11 573.60 912.17 569.02
  C 915.88 566.91 920.41 566.62 924.63 564.98
  A 1.12 1.08 -44.1 0 1 925.44 564.98
  L 928.17 566.01
  A 1.13 1.07 -34.2 0 0 928.61 566.08
  C 943.07 565.38 957.19 568.18 969.66 575.55
  C 973.44 577.79 977.45 579.63 980.84 582.22
  Q 989.06 588.51 991.35 590.92
  Q 997.41 597.32 1000.55 608.84
  Q 1000.67 609.27 1000.52 609.69
  Q 999.17 613.39 1000.84 617.04
  Q 1001.06 617.52 1001.01 618.04
  Q 1000.40 624.27 1006.28 626.63
  Q 1015.34 630.27 1023.16 632.38
  C 1024.86 632.83 1029.86 634.95 1031.01 636.83
  Q 1031.26 637.25 1031.12 637.72
  C 1030.25 640.63 1029.99 645.26 1028.21 647.15
  Q 1026.22 649.27 1022.72 647.99
  Q 994.35 637.62 974.74 632.43
  Q 966.47 630.23 961.62 628.30
  Q 960.37 627.80 957.28 627.05
  Q 955.42 626.60 952.93 625.58
  Z
  M 975.91 601.33
  C 965.79 589.97 952.55 584.07 937.35 583.00
  C 934.91 582.82 931.85 581.47 929.50 582.02
  C 923.74 583.38 920.54 583.10 914.89 586.67
  Q 914.44 586.95 914.28 587.45
  L 912.21 593.62
  Q 912.07 594.04 912.19 594.47
  C 913.47 598.76 919.35 599.98 923.92 601.05
  C 925.86 601.50 927.19 602.75 929.36 603.05
  Q 932.34 603.45 933.27 603.79
  Q 944.17 607.79 955.22 611.33
  Q 964.34 614.26 973.74 616.06
  Q 978.16 616.90 980.02 613.25
  A 1.22 1.22 0.0 0 0 980.07 612.27
  C 978.80 608.96 978.22 603.93 975.91 601.33
  Z"
/>
<path fill="#90abc4" d="
  M 256.61 781.63
  Q 245.42 795.74 237.78 807.24
  Q 236.49 809.19 234.89 810.07
  Q 234.44 810.31 233.95 810.19
  C 229.86 809.12 228.08 805.75 225.82 803.04
  A 4.74 4.73 44.4 0 1 225.75 797.03
  Q 227.61 794.71 230.30 792.04
  Q 236.65 785.76 241.26 778.11
  C 243.10 775.05 246.87 768.79 240.99 767.00
  Q 238.00 766.09 234.47 768.69
  Q 225.85 775.02 217.84 782.11
  Q 216.05 783.70 212.33 785.21
  A 0.83 0.83 0.0 0 1 211.38 784.98
  L 203.10 775.27
  Q 202.66 774.76 203.17 774.31
  Q 219.72 759.73 235.87 746.11
  Q 243.10 740.02 250.30 733.56
  C 262.25 722.86 274.83 713.11 283.72 704.98
  Q 289.67 699.54 304.21 687.96
  C 308.25 684.75 312.35 683.31 316.29 687.38
  Q 320.51 691.75 324.40 696.27
  C 326.36 698.55 329.43 703.42 329.98 706.46
  Q 330.65 710.11 331.63 713.69
  A 1.47 1.45 -40.3 0 1 331.54 714.72
  Q 330.36 717.17 331.69 719.51
  A 1.06 1.04 -46.6 0 1 331.71 720.51
  C 329.29 725.26 328.45 730.80 326.13 734.61
  Q 322.63 740.38 316.76 747.21
  C 307.66 757.79 295.92 765.68 283.46 771.67
  C 279.00 773.81 273.78 774.94 268.84 774.93
  C 263.34 774.91 260.15 777.17 256.61 781.63
  Z
  M 314.58 715.37
  Q 316.14 710.19 311.29 706.98
  A 1.46 1.41 -31.1 0 0 310.34 706.76
  Q 305.33 707.36 301.41 710.68
  Q 280.80 728.15 260.45 745.95
  Q 257.54 748.50 255.73 751.20
  A 0.80 0.79 -47.2 0 0 255.76 752.13
  C 259.09 756.54 262.79 756.66 267.79 757.48
  Q 269.34 757.74 271.37 757.22
  Q 280.47 754.92 285.03 752.81
  Q 289.10 750.94 298.71 742.72
  Q 309.21 733.74 313.57 720.59
  C 314.16 718.84 314.03 717.21 314.58 715.37
  Z"
/>
<path fill="#90abc4" d="
  M 918.52 807.63
  C 909.25 805.20 902.11 801.74 895.14 795.19
  C 890.96 791.26 887.40 787.83 882.41 783.78
  C 879.53 781.45 876.65 778.52 874.15 776.40
  C 869.08 772.11 863.96 767.98 859.05 763.41
  Q 849.40 754.44 839.45 745.80
  Q 829.83 737.45 823.00 723.75
  Q 821.86 721.46 821.96 719.06
  Q 822.14 714.83 823.12 710.74
  Q 823.63 708.63 825.33 706.34
  C 827.05 704.03 827.99 701.66 830.23 699.86
  Q 835.30 695.80 838.51 694.53
  C 845.23 691.90 849.58 693.10 855.61 694.72
  Q 857.98 695.35 860.11 696.96
  C 865.08 700.72 870.65 703.60 875.14 707.63
  Q 896.88 727.17 906.75 735.03
  C 919.81 745.44 932.87 755.29 941.85 768.54
  C 943.82 771.45 944.37 774.88 945.94 778.17
  Q 946.16 778.63 945.87 779.05
  Q 944.36 781.28 945.71 783.58
  Q 945.97 784.02 945.85 784.53
  C 944.83 788.68 944.32 792.83 941.65 796.19
  Q 938.64 799.96 934.78 802.84
  Q 932.18 804.78 928.08 805.95
  C 925.00 806.83 921.73 808.47 918.52 807.63
  Z
  M 927.55 782.44
  Q 928.11 780.16 928.04 777.86
  Q 928.03 777.37 927.71 777.00
  Q 925.21 774.10 922.61 771.33
  Q 920.22 768.77 917.35 766.23
  Q 899.77 750.65 882.04 735.23
  C 876.80 730.68 869.13 724.89 863.05 719.21
  Q 857.99 714.48 851.96 711.08
  C 848.73 709.25 846.08 709.86 843.23 711.78
  C 832.34 719.14 850.45 734.39 855.37 738.63
  C 870.07 751.25 884.85 763.78 899.23 776.77
  Q 905.77 782.69 913.07 787.71
  Q 914.77 788.88 916.80 788.98
  Q 919.97 789.12 923.19 788.99
  C 927.30 788.81 926.84 785.30 927.55 782.44
  Z"
/>
<path fill="#90abc4" d="
  M 382.54 895.79
  Q 388.84 899.44 395.36 902.74
  C 402.37 906.28 397.81 912.72 395.07 917.58
  C 393.98 919.50 392.70 920.23 390.43 919.62
  C 385.10 918.18 379.55 914.78 375.83 913.20
  C 369.83 910.65 362.30 909.24 359.32 902.49
  Q 359.13 902.06 359.27 901.62
  Q 361.65 893.98 364.58 886.60
  C 366.89 880.77 371.07 874.99 373.29 868.38
  C 374.41 865.06 376.71 863.69 377.36 859.87
  Q 377.45 859.37 377.79 859.00
  C 379.74 856.96 380.14 854.30 381.30 852.24
  C 384.48 846.62 386.19 840.65 389.42 835.04
  Q 392.26 830.13 394.06 824.73
  C 394.77 822.63 396.34 821.48 397.23 819.53
  Q 402.07 808.92 407.34 798.51
  Q 407.61 797.97 409.10 793.80
  C 409.98 791.34 411.77 789.67 412.83 787.35
  Q 416.16 780.00 424.24 777.84
  A 1.48 1.47 50.7 0 1 425.30 777.95
  Q 427.74 779.17 430.47 779.00
  A 1.43 1.40 61.5 0 1 431.41 779.29
  Q 434.35 781.52 436.49 782.30
  Q 445.65 785.65 453.44 791.01
  A 1.70 1.68 24.4 0 1 454.13 792.82
  Q 452.51 799.33 448.46 804.65
  Q 448.11 805.11 447.53 805.08
  Q 441.41 804.71 436.45 801.29
  A 1.62 1.58 61.6 0 0 435.55 801.01
  C 434.06 801.03 433.26 800.88 431.73 800.38
  Q 425.37 798.31 422.54 804.56
  Q 411.79 828.35 404.38 843.99
  C 397.02 859.54 419.43 855.22 415.66 863.45
  Q 413.02 869.21 409.22 874.84
  A 2.11 2.11 0.0 0 1 406.27 875.40
  C 402.12 872.51 395.57 868.59 390.75 872.73
  Q 389.55 873.76 387.83 877.70
  C 385.16 883.82 381.28 887.42 382.06 895.03
  Q 382.11 895.53 382.54 895.79
  Z"
/>
<path fill="#90abc4" d="
  M 730.31 898.21
  C 726.31 889.79 723.01 883.37 719.74 875.79
  Q 718.45 872.78 715.94 868.40
  C 713.08 863.41 712.16 858.22 710.07 853.60
  C 704.90 842.14 700.84 829.84 697.18 817.81
  A 1.38 1.36 -42.8 0 1 697.22 816.90
  C 697.65 815.82 698.02 815.15 697.97 813.93
  C 697.46 801.66 703.51 794.99 712.76 788.19
  C 718.15 784.22 725.35 781.68 731.26 780.17
  C 737.20 778.66 741.70 787.58 743.98 792.86
  Q 748.41 803.11 752.56 813.47
  Q 754.02 817.10 757.27 824.01
  Q 760.05 829.91 761.54 834.77
  Q 762.47 837.82 763.72 840.08
  Q 766.36 844.85 766.46 845.07
  Q 775.58 865.56 784.40 886.18
  Q 785.17 887.99 787.37 892.69
  C 788.96 896.11 790.99 899.67 791.01 903.55
  Q 791.01 905.57 791.01 907.55
  Q 791.01 908.07 790.71 908.48
  Q 788.06 912.09 783.49 914.66
  C 775.44 919.20 768.67 922.02 759.87 922.04
  Q 758.53 922.05 755.76 921.35
  C 753.79 920.86 751.99 921.15 750.18 920.51
  C 741.13 917.29 734.20 906.42 730.31 898.21
  Z
  M 748.87 896.49
  Q 751.94 901.02 756.76 903.41
  Q 760.92 905.47 764.62 904.26
  Q 768.82 902.89 770.95 898.60
  A 1.43 1.42 51.1 0 0 771.05 897.62
  Q 769.74 892.44 767.29 887.76
  C 765.59 884.51 764.86 881.03 763.54 878.26
  C 758.92 868.53 753.92 855.90 750.75 848.63
  Q 743.34 831.69 735.71 814.85
  C 734.27 811.67 729.05 801.04 724.94 802.15
  C 714.39 805.01 714.74 816.35 717.73 824.73
  Q 719.68 830.18 721.36 834.34
  Q 722.00 835.92 724.55 843.36
  C 726.35 848.56 729.60 852.74 731.24 857.82
  Q 735.72 871.67 743.09 884.22
  C 745.08 887.60 746.59 893.12 748.87 896.49
  Z"
/>
<path fill="#90abc4" d="
  M 580.46 933.01
  C 578.17 928.43 569.09 928.50 565.22 929.02
  Q 561.71 929.49 558.97 931.80
  C 554.50 935.57 554.72 941.32 553.23 946.54
  Q 551.98 950.94 550.80 955.16
  A 3.89 3.87 7.5 0 1 547.10 957.99
  C 543.98 958.03 534.08 959.80 536.17 953.49
  Q 537.75 948.72 538.05 943.73
  Q 538.14 942.14 538.65 939.83
  C 539.04 938.07 538.95 936.23 539.42 934.58
  C 541.21 928.27 542.02 920.54 542.98 915.48
  Q 544.56 907.20 545.79 898.86
  Q 546.03 897.23 547.16 893.77
  C 547.92 891.42 548.05 888.71 548.45 886.75
  Q 549.74 880.46 550.64 874.11
  Q 551.59 867.45 552.86 861.52
  Q 555.34 849.89 556.81 838.08
  Q 557.29 834.22 558.66 830.14
  Q 560.35 825.07 561.58 819.86
  Q 562.39 816.42 567.00 815.23
  Q 573.24 813.61 580.21 817.20
  Q 580.63 817.42 580.86 817.84
  C 582.38 820.61 582.66 823.22 583.29 826.18
  C 584.36 831.17 584.78 836.38 585.84 841.22
  Q 587.25 847.64 588.03 854.18
  C 588.25 855.97 589.59 860.19 589.32 863.12
  Q 589.11 865.48 589.37 866.90
  Q 591.73 879.59 592.73 887.01
  C 593.19 890.47 592.97 893.99 593.63 897.94
  C 594.25 901.68 593.84 905.40 594.61 908.94
  Q 595.69 913.98 596.87 918.99
  C 597.28 920.72 596.86 923.14 597.34 925.32
  C 598.17 929.14 598.00 933.32 598.50 936.71
  Q 600.40 949.36 601.02 956.25
  C 601.20 958.24 599.69 958.87 597.88 959.00
  C 593.48 959.31 590.00 961.13 585.56 957.98
  A 1.02 0.99 16.5 0 1 585.14 957.23
  Q 584.22 945.01 582.69 939.51
  Q 581.43 934.94 580.46 933.01
  Z
  M 576.81 882.84
  Q 575.09 870.20 573.85 857.51
  Q 573.61 855.06 571.93 853.35
  A 1.78 1.78 0.0 0 0 569.30 853.45
  Q 568.75 854.09 568.51 855.20
  Q 564.12 875.54 561.31 896.16
  Q 561.03 898.24 561.01 900.37
  C 560.99 903.85 560.15 907.23 563.77 909.32
  C 569.66 912.72 578.62 911.77 578.99 903.23
  C 579.29 896.42 577.61 888.67 576.81 882.84
  Z"
/>
</svg>
