<?xml version="1.0" encoding="UTF-8" standalone="no"?>
<!DOCTYPE svg PUBLIC "-//W3C//DTD SVG 1.1//EN" "http://www.w3.org/Graphics/SVG/1.1/DTD/svg11.dtd">
<svg xmlns="http://www.w3.org/2000/svg" version="1.1" viewBox="0.00 0.00 834.00 732.00">
<path fill="#9e9682" d="
  M 475.60 387.48
  C 515.62 353.83 526.25 293.02 497.08 248.63
  C 452.71 181.10 360.74 168.60 299.20 220.24
  C 233.27 275.56 220.68 369.27 268.59 440.61
  Q 268.89 441.06 268.38 441.22
  C 236.33 451.23 205.74 467.44 176.56 486.31
  Q 160.39 496.77 149.73 505.46
  C 120.02 529.66 98.29 563.83 91.18 601.73
  A 0.38 0.38 0.0 0 1 90.49 601.88
  C -29.42 432.38 10.18 197.82 177.32 75.58
  C 313.52 -24.03 502.56 5.20 602.24 141.59
  C 678.21 245.53 658.56 390.24 559.12 471.57
  Q 551.01 478.20 543.08 483.50
  C 459.08 539.55 343.56 521.16 282.52 439.43
  C 233.67 374.01 244.02 283.47 305.15 230.64
  C 359.55 183.63 440.55 192.15 483.12 249.77
  C 514.70 292.51 503.83 351.53 462.80 383.29
  C 434.95 404.86 396.62 402.85 369.71 380.80
  C 352.37 366.59 342.54 344.90 346.49 322.59
  C 349.83 303.74 362.86 285.98 381.40 278.91
  C 409.89 268.04 448.93 290.47 440.35 323.59
  C 435.56 342.07 416.72 355.24 397.93 345.81
  C 383.16 338.40 380.15 322.00 392.05 310.03
  Q 397.59 304.45 406.51 306.39
  Q 406.77 306.45 406.66 306.70
  Q 406.59 306.86 406.46 306.85
  C 385.88 305.97 382.73 332.14 399.68 339.08
  C 407.07 342.11 415.92 340.47 421.72 334.77
  C 432.15 324.54 430.52 307.19 418.64 298.79
  C 411.09 293.46 401.21 291.94 392.54 295.17
  C 376.12 301.30 368.78 321.63 375.62 337.43
  C 384.79 358.65 411.69 366.34 431.37 354.88
  C 448.10 345.13 457.01 325.55 453.79 306.69
  C 447.54 270.08 399.38 251.07 368.50 271.51
  C 324.90 300.37 324.91 359.75 365.68 390.82
  C 398.80 416.06 444.11 413.97 475.60 387.48
  Z"
/>
<path fill="#9e9682" d="
  M 684.80 219.48
  C 683.17 215.80 686.59 213.36 689.09 211.35
  C 715.60 190.08 744.02 170.83 771.57 151.17
  A 1.51 1.51 0.0 0 1 773.57 151.39
  Q 776.79 155.01 778.43 159.54
  A 1.89 1.87 63.6 0 1 777.69 161.76
  C 771.92 165.50 760.14 172.50 763.32 180.70
  C 768.81 194.89 779.94 187.43 790.09 185.65
  Q 790.58 185.56 790.91 185.94
  Q 794.22 189.74 795.46 194.68
  A 0.87 0.87 0.0 0 1 794.90 195.72
  C 767.92 205.04 740.58 213.38 713.53 222.59
  Q 702.29 226.42 692.50 228.24
  C 688.45 228.99 686.23 222.73 684.80 219.48
  Z
  M 712.26 208.41
  A 1.54 1.54 0.0 0 0 714.10 210.46
  Q 731.22 205.65 748.13 198.96
  C 758.12 195.02 751.53 179.54 739.73 187.97
  Q 726.81 197.20 713.82 206.32
  Q 712.83 207.02 712.26 208.41
  Z"
/>
<rect fill="#9e9682" x="-54.37" y="-5.58" transform="translate(766.73,311.04) rotate(-4.8)" width="108.74" height="11.16" rx="3.17"/>
<path fill="#9e9682" d="
  M 704.32 431.93
  C 701.11 430.90 696.68 427.57 697.50 423.48
  C 698.58 418.07 699.78 412.63 703.33 408.40
  C 709.93 400.56 717.94 397.55 728.44 398.16
  C 735.55 398.58 742.66 399.40 749.25 401.98
  C 761.37 406.73 780.81 418.33 780.80 433.88
  C 780.80 436.56 781.55 438.64 781.54 441.09
  A 3.51 3.51 0.0 0 0 783.85 444.42
  L 803.57 451.57
  A 0.99 0.98 -73.1 0 1 804.19 452.74
  L 802.16 460.79
  A 1.71 1.71 0.0 0 1 799.96 462.00
  C 768.75 451.68 736.14 442.20 704.32 431.93
  Z
  M 713.80 416.92
  C 712.12 421.80 714.19 422.95 718.44 424.30
  Q 734.43 429.33 750.42 434.38
  C 753.32 435.29 765.31 439.83 764.48 433.33
  C 762.78 419.92 744.41 412.33 732.52 411.48
  C 727.39 411.12 716.00 410.56 713.80 416.92
  Z"
/>
<path fill="#9e9682" d="
  M 174.53 567.72
  L 168.62 561.04
  A 1.05 1.04 -41.0 0 1 168.73 559.56
  Q 173.89 555.12 179.00 550.53
  C 187.69 542.73 197.16 535.48 205.85 527.43
  Q 210.31 523.31 215.61 519.13
  C 222.67 513.58 230.64 506.20 236.10 501.68
  C 240.93 497.68 247.85 490.78 251.96 491.51
  Q 253.77 491.83 255.89 493.97
  C 264.32 502.50 269.61 510.57 265.38 523.18
  C 259.23 541.52 234.89 560.95 215.00 560.95
  C 213.79 560.95 212.36 562.19 211.53 563.27
  Q 206.01 570.41 200.49 577.54
  C 198.77 579.76 195.96 584.13 193.12 587.08
  A 1.56 1.56 0.0 0 1 191.02 587.21
  Q 187.29 584.23 184.94 580.11
  A 1.20 1.18 38.7 0 1 184.83 579.19
  C 185.86 575.79 207.94 556.32 196.25 554.12
  Q 195.79 554.03 195.36 554.24
  C 188.81 557.51 182.47 563.60 176.69 567.94
  A 1.60 1.60 0.0 0 1 174.53 567.72
  Z
  M 209.37 542.77
  C 213.48 549.88 226.23 546.07 232.17 542.68
  C 242.35 536.86 251.64 527.12 253.64 514.78
  C 254.39 510.11 251.87 506.39 246.81 509.35
  Q 244.15 510.91 241.45 513.20
  Q 221.93 529.78 211.31 539.06
  Q 210.12 540.10 209.33 541.88
  A 0.98 0.96 43.1 0 0 209.37 542.77
  Z"
/>
<path fill="#9e9682" d="
  M 662.08 542.30
  C 654.25 535.16 642.81 525.71 643.44 515.48
  C 644.30 501.55 658.77 493.18 671.44 499.58
  C 675.94 501.86 682.56 507.34 687.49 511.58
  Q 705.14 526.78 722.94 541.81
  C 733.51 550.73 746.33 565.69 733.34 579.05
  C 723.01 589.67 710.22 584.83 700.70 576.55
  Q 677.92 556.72 662.08 542.30
  Z
  M 664.02 527.75
  Q 681.37 543.11 699.04 558.10
  C 704.41 562.65 713.06 572.64 720.99 571.21
  C 723.67 570.72 724.00 568.48 724.66 565.90
  Q 725.64 562.07 722.54 559.21
  Q 699.68 538.14 673.21 516.03
  C 669.03 512.54 662.84 507.11 658.30 513.47
  C 655.19 517.83 660.90 524.98 664.02 527.75
  Z"
/>
<path fill="#9e9682" d="
  M 619.83 656.12
  A 9.12 9.12 0.0 0 1 615.10 668.12
  L 608.57 670.96
  A 27.06 25.38 66.5 0 1 574.51 656.26
  L 551.47 603.27
  A 27.06 25.38 66.5 0 1 563.95 568.34
  L 570.48 565.50
  A 9.12 9.12 0.0 0 1 582.48 570.23
  L 619.83 656.12
  Z
  M 588.62 653.10
  C 592.13 659.47 598.41 662.29 604.48 656.92
  Q 605.24 656.26 605.07 655.27
  Q 604.69 653.04 603.68 650.56
  Q 592.20 622.33 579.78 594.48
  Q 577.39 589.13 572.81 582.38
  A 0.98 0.96 72.7 0 0 572.01 581.95
  Q 563.95 581.83 563.16 589.33
  C 562.95 591.37 564.07 596.77 564.73 598.59
  C 569.04 610.48 572.56 617.52 575.26 624.96
  C 578.79 634.70 583.63 644.03 588.62 653.10
  Z"
/>
<path fill="#9e9682" d="
  M 305.52 654.47
  L 317.51 661.45
  A 2.19 2.18 25.1 0 1 318.46 664.07
  C 317.41 667.00 314.94 674.90 310.47 672.83
  Q 300.90 668.39 291.17 664.36
  C 284.97 661.80 289.64 652.46 291.43 648.69
  Q 308.52 612.73 325.99 576.96
  C 329.27 570.26 332.62 562.09 342.20 565.62
  Q 350.59 568.70 358.30 573.18
  C 362.41 575.57 358.26 582.55 355.77 584.86
  A 1.39 1.35 -67.5 0 1 354.93 585.22
  C 349.98 585.57 340.58 577.22 337.15 583.60
  C 333.52 590.37 330.72 597.55 327.36 604.29
  Q 324.19 610.67 321.60 617.32
  C 319.37 623.06 326.58 625.03 330.28 626.74
  A 1.76 1.76 0.0 0 1 331.19 628.97
  Q 329.14 634.29 325.76 638.85
  A 1.45 1.44 35.8 0 1 323.76 639.17
  C 320.27 636.67 313.29 633.50 310.48 639.15
  C 308.31 643.51 304.88 648.74 304.99 653.59
  Q 305.01 654.18 305.52 654.47
  Z"
/>
<path fill="#9e9682" d="
  M 423.57 701.40
  A 1.13 1.13 0.0 0 1 422.61 700.10
  Q 427.70 669.42 433.56 639.40
  Q 433.72 638.58 434.56 632.55
  C 434.97 629.50 436.02 626.33 436.39 623.47
  Q 438.59 606.35 442.70 594.24
  C 443.93 590.62 454.85 591.08 457.06 593.58
  Q 457.94 594.59 458.48 597.14
  Q 462.29 615.29 464.10 630.99
  C 464.40 633.61 465.06 636.10 465.28 638.27
  Q 466.20 647.65 467.22 657.03
  C 467.89 663.23 469.48 670.83 470.13 677.80
  C 470.88 685.77 472.29 693.58 472.85 701.55
  A 0.62 0.62 0.0 0 1 472.42 702.19
  Q 467.57 703.70 462.58 702.97
  A 2.21 2.21 0.0 0 1 460.70 701.04
  C 459.96 694.69 459.50 680.90 451.68 679.60
  C 436.40 677.07 437.14 689.31 434.22 699.24
  C 433.09 703.08 426.56 701.82 423.57 701.40
  Z
  M 441.93 658.10
  C 441.04 666.37 451.21 668.04 455.23 662.13
  A 1.54 1.51 62.8 0 0 455.50 661.26
  C 455.55 650.03 453.23 638.75 452.04 627.58
  Q 451.71 624.52 451.12 621.89
  A 1.55 1.55 0.0 0 0 448.32 621.37
  Q 447.65 622.37 447.37 623.72
  Q 443.81 640.78 441.93 658.10
  Z"
/>
</svg>
